<?xml version="1.0" encoding="UTF-8" standalone="no"?>
<svg
   id="Vrstva_1"
   viewBox="0 0 100 100"
   version="1.1"
   sodipodi:docname="administration.svg"
   inkscape:version="1.1.2 (0a00cf5339, 2022-02-04)"
   xmlns:inkscape="http://www.inkscape.org/namespaces/inkscape"
   xmlns:sodipodi="http://sodipodi.sourceforge.net/DTD/sodipodi-0.dtd"
   xmlns="http://www.w3.org/2000/svg"
   xmlns:svg="http://www.w3.org/2000/svg">
  <sodipodi:namedview
     id="namedview19"
     pagecolor="#ffffff"
     bordercolor="#666666"
     borderopacity="1.0"
     inkscape:pageshadow="2"
     inkscape:pageopacity="0.0"
     inkscape:pagecheckerboard="0"
     showgrid="false"
     inkscape:zoom="7.82"
     inkscape:cx="49.936061"
     inkscape:cy="49.936061"
     inkscape:window-width="1876"
     inkscape:window-height="1016"
     inkscape:window-x="0"
     inkscape:window-y="0"
     inkscape:window-maximized="1"
     inkscape:current-layer="Vrstva_1" />
  <defs
     id="defs4">
    <style
       id="style2">.cls-1{fill:#717171;}</style>
  </defs>
  <path
     style="fill:#000000;stroke-width:0.178724"
     d="M 16.27777,34.690008 C 16.181144,34.539446 13.611612,31.336402 10.567713,27.572135 7.5238124,23.807866 5.0087573,20.656002 4.9787,20.567994 4.948635,20.479994 5.6602036,19.897206 6.5599468,19.272928 7.45969,18.648651 8.87902,17.620518 9.7140152,16.988186 c 0.8349948,-0.63233 1.5980968,-1.149692 1.6957838,-1.149692 0.09769,0 1.391065,1.52259 2.874178,3.383532 l 2.696569,3.383534 6.241367,-6.562844 6.24137,-6.5628438 2.843457,2.9520528 2.84346,2.952052 -9.348368,9.789889 c -7.507581,7.862163 -9.382965,9.735987 -9.524062,9.516142 z"
     id="path58" />
  <path
     style="fill:#000000;stroke-width:0.178724"
     d="M 11.024463,58.389719 C 5.3921735,51.425041 3.6826206,49.272882 3.6795331,49.143181 c -0.00139,-0.06032 0.5705926,-0.501055 1.2711727,-0.979402 0.70058,-0.478344 2.1694865,-1.524073 3.2642381,-2.323839 1.6617617,-1.213996 2.0266241,-1.412534 2.2094791,-1.202285 0.120466,0.138504 1.352069,1.670321 2.736899,3.404025 l 2.517876,3.152189 6.278173,-6.494736 6.278174,-6.494735 2.845523,2.888029 2.845523,2.888029 -9.274596,9.726681 c -5.10103,5.349675 -9.319283,9.747607 -9.373897,9.773181 -0.05461,0.02558 -1.968748,-2.265194 -4.253635,-5.090599 z"
     id="path97" />
  <path
     style="fill:#000000;stroke-width:0.178724"
     d="M 11.446939,89.269801 C 6.2143366,82.821159 4.0181173,80.048937 4.0200149,79.895012 c 8.465e-4,-0.06854 0.493379,-0.451886 1.0945203,-0.851862 0.601139,-0.399975 2.0718714,-1.446319 3.2682923,-2.325208 1.8447625,-1.355158 2.2057215,-1.556531 2.3754385,-1.325217 1.193889,1.6272 5.165488,6.453506 5.315959,6.459984 0.108015,0.0047 2.948278,-2.901199 6.311684,-6.457441 l 6.11529,-6.465892 2.855449,2.95073 2.855449,2.950731 -9.242414,9.696605 c -5.083327,5.33313 -9.300985,9.696604 -9.372575,9.696604 -0.07158,0 -1.939165,-2.229411 -4.150169,-4.954245 z"
     id="path136" />
  <path
     style="fill:#000000;stroke-width:0.178724"
     d="m 39.718757,85.202396 v -4.181564 h 27.408271 27.408271 v 4.181564 4.181564 H 67.127028 39.718757 Z"
     id="path175" />
  <path
     style="fill:#000000;stroke-width:0.178724"
     d="m 38.72087,52.779559 v -4.181564 h 27.40827 27.408271 v 4.181564 4.181564 H 66.12914 38.72087 Z"
     id="path214" />
  <path
     style="fill:#000000;stroke-width:0.178724"
     d="m 39.716013,24.923919 v -4.181565 h 27.40827 27.408271 v 4.181565 4.181563 H 67.124283 39.716013 Z"
     id="path253" />
</svg>
