<?xml version="1.0" encoding="UTF-8" standalone="no"?>
<svg
   id="Vrstva_1"
   viewBox="0 0 100 100"
   version="1.1"
   sodipodi:docname="alerts.svg"
   inkscape:version="1.1.2 (0a00cf5339, 2022-02-04)"
   xmlns:inkscape="http://www.inkscape.org/namespaces/inkscape"
   xmlns:sodipodi="http://sodipodi.sourceforge.net/DTD/sodipodi-0.dtd"
   xmlns="http://www.w3.org/2000/svg"
   xmlns:svg="http://www.w3.org/2000/svg">
  <sodipodi:namedview
     id="namedview19"
     pagecolor="#ffffff"
     bordercolor="#666666"
     borderopacity="1.0"
     inkscape:pageshadow="2"
     inkscape:pageopacity="0.0"
     inkscape:pagecheckerboard="0"
     showgrid="false"
     inkscape:zoom="7.82"
     inkscape:cx="49.936061"
     inkscape:cy="49.936061"
     inkscape:window-width="1876"
     inkscape:window-height="1016"
     inkscape:window-x="0"
     inkscape:window-y="0"
     inkscape:window-maximized="1"
     inkscape:current-layer="Vrstva_1" />
  <defs
     id="defs4">
    <style
       id="style2">.cls-1{fill:#717171;}</style>
  </defs>
  <path
     style="fill:#000000;stroke-width:0.155404"
     d="M 14.721721,76.777269 C 10.122968,71.756844 6.4539402,64.911052 4.7882857,58.243144 2.2265151,47.987921 3.3105767,37.234683 7.8513713,27.859218 c 1.1983989,-2.474357 2.4855817,-4.630194 4.0138207,-6.722537 1.129037,-1.545788 3.611398,-4.46199 3.873647,-4.550639 0.08502,-0.02875 1.251484,1.07759 2.592142,2.458511 l 2.437559,2.510764 -1.102788,1.214538 C 9.9193415,33.50389 7.6750728,50.078625 14.162837,63.410856 c 1.502276,3.087147 3.069397,5.453984 5.38168,8.128006 l 1.158418,1.339642 -2.404307,2.482279 c -1.322371,1.365252 -2.448483,2.482278 -2.502471,2.482278 -0.05399,0 -0.537485,-0.479606 -1.074436,-1.065792 z"
     id="path58" />
  <path
     style="fill:#000000;stroke-width:0.155404"
     d="m 28.706462,65.267022 c -2.948653,-3.429856 -5.130855,-7.814159 -6.089803,-12.235133 -1.804562,-8.319456 0.190573,-16.956898 5.434944,-23.52924 0.484177,-0.606779 1.079588,-1.296778 1.323135,-1.533331 l 0.442811,-0.430095 2.427865,2.500777 2.427864,2.500779 -1.038082,1.311729 c -1.812592,2.290409 -2.83769,4.196635 -3.671174,6.826752 -0.729222,2.301111 -0.91923,3.628447 -0.915637,6.396349 0.0034,2.68294 0.222331,4.11231 0.994729,6.496874 0.77012,2.377528 2.198416,4.924414 3.81663,6.805673 l 0.800443,0.930558 -2.424541,2.497353 c -1.333495,1.373544 -2.47261,2.497352 -2.531365,2.497352 -0.05875,0 -0.507773,-0.466377 -0.997819,-1.036397 z"
     id="path97" />
  <path
     style="fill:#000000;stroke-width:0.155404"
     d="M 42.715112,37.735664 V 18.507852 h 5.899522 5.89952 v 19.227812 19.227812 h -5.89952 -5.899522 z"
     id="path136" />
  <path
     style="fill:#000000;stroke-width:0.155404"
     d="m 42.757612,73.201717 v -6.461805 h 5.899521 5.899521 v 6.461805 6.461806 h -5.899521 -5.899521 z"
     id="path175" />
  <path
     style="fill:#000000;stroke-width:0.155404"
     d="m 66.126916,64.576537 -2.404587,-2.48228 0.861947,-1.024432 c 2.233641,-2.654708 3.689855,-5.705817 4.438027,-9.298696 0.34186,-1.641679 0.386636,-6.313389 0.07478,-7.801448 -0.78746,-3.757373 -2.412412,-7.172915 -4.611329,-9.692708 l -0.756443,-0.866829 2.460088,-2.542869 2.460089,-2.542869 1.053702,1.188892 c 3.264915,3.683801 5.492574,8.548768 6.439134,14.06237 0.295847,1.72328 0.259579,6.779962 -0.06219,8.67015 -0.717499,4.214905 -2.484607,8.511486 -4.841704,11.772219 -0.932083,1.289413 -2.432791,3.040778 -2.605578,3.040778 -0.05574,0 -1.183411,-1.117025 -2.505934,-2.482278 z"
     id="path214" />
  <path
     style="fill:#000000;stroke-width:0.155404"
     d="m 80.298877,75.132457 -2.432541,-2.505596 1.134989,-1.316326 c 2.32957,-2.701772 3.960647,-5.183925 5.407573,-8.229178 1.653408,-3.479828 2.658973,-6.723255 3.260938,-10.518085 0.380759,-2.400328 0.378281,-8.722142 -0.0043,-11.095572 -1.163309,-7.215946 -4.055366,-13.475496 -8.661956,-18.74788 -0.602471,-0.689546 -1.092965,-1.292387 -1.089985,-1.339642 0.003,-0.04725 1.072254,-1.220675 2.376166,-2.6076 l 2.370748,-2.52168 1.320609,1.418445 c 3.071754,3.299322 6.112324,8.175851 7.930403,12.718946 4.104407,10.256268 4.225084,22.120159 0.329237,32.36797 -1.452094,3.819654 -3.928525,8.255173 -6.284921,11.256877 -1.185727,1.510445 -3.018894,3.624915 -3.142663,3.624915 -0.04494,0 -1.176351,-1.127516 -2.514248,-2.505594 z"
     id="path253" />
</svg>
