<?xml version="1.0" encoding="UTF-8" standalone="no"?>
<svg
   id="Vrstva_1"
   viewBox="0 0 100 100"
   version="1.1"
   sodipodi:docname="assets.svg"
   inkscape:version="1.1.2 (0a00cf5339, 2022-02-04)"
   xmlns:inkscape="http://www.inkscape.org/namespaces/inkscape"
   xmlns:sodipodi="http://sodipodi.sourceforge.net/DTD/sodipodi-0.dtd"
   xmlns="http://www.w3.org/2000/svg"
   xmlns:svg="http://www.w3.org/2000/svg">
  <sodipodi:namedview
     id="namedview11"
     pagecolor="#ffffff"
     bordercolor="#666666"
     borderopacity="1.0"
     inkscape:pageshadow="2"
     inkscape:pageopacity="0.0"
     inkscape:pagecheckerboard="0"
     showgrid="false"
     inkscape:zoom="7.82"
     inkscape:cx="49.936061"
     inkscape:cy="49.936061"
     inkscape:window-width="1876"
     inkscape:window-height="1016"
     inkscape:window-x="0"
     inkscape:window-y="0"
     inkscape:window-maximized="1"
     inkscape:current-layer="Vrstva_1" />
  <defs
     id="defs4">
    <style
       id="style2">.cls-1{fill:#717171;}</style>
  </defs>
  <path
     style="fill:#000000;stroke-width:0.181864"
     d="M 5.9848413,83.378175 C 4.9490349,83.02835 4.11191,82.12312 3.8756299,81.097363 3.7263916,80.449476 3.6833723,72.011807 3.7246431,51.482732 3.7788058,24.538251 3.8025951,22.739621 4.1117965,22.212546 4.2929889,21.903675 4.7525924,21.429588 5.1331395,21.15902 L 5.825043,20.667077 H 24.031571 42.2381 l 0.665197,0.472953 c 1.391956,0.989682 1.283308,-1.622835 1.283308,30.857744 0,24.239777 -0.04344,29.267464 -0.256936,29.74379 -0.327577,0.730827 -1.252634,1.457951 -2.150564,1.690416 C 40.717404,83.706842 6.8070744,83.65587 5.9848413,83.37819 Z M 25.806512,80.910902 c 2.162223,-1.181195 2.168399,-4.358701 0.01071,-5.497868 -1.456485,-0.768955 -3.57655,-0.43023 -4.510185,0.720594 -0.991685,1.222372 -0.992733,2.85319 -0.0026,4.073685 0.951284,1.172638 3.044651,1.499788 4.502123,0.703589 z M 39.477486,48.848915 V 24.968977 H 24.031571 8.5856584 V 48.848915 72.728852 H 24.031571 39.477486 Z"
     id="path50" />
  <path
     style="fill:#000000;stroke-width:0.181864"
     d="M 65.799042,94.43407 C 63.643653,93.992404 62.043815,92.591016 61.404681,90.584804 60.995223,89.299539 61.047189,87.338816 61.680258,80.186594 62.949235,65.8501 62.971862,65.150293 62.330307,60.081792 61.960263,57.158315 60.918158,52.466447 59.990331,49.546525 58.005984,43.301684 57.462635,41.204199 56.897304,37.606558 c -1.490425,-9.484706 -0.25263,-18.058859 3.486472,-24.150684 1.500042,-2.4439 2.613231,-3.304957 4.842806,-3.7459355 1.532076,-0.303023 22.206597,-0.26672 23.611195,0.04145 2.293478,0.5032075 3.603136,1.7250535 5.325425,4.9683575 2.321141,4.371021 3.360114,9.132695 3.346353,15.336527 -0.01107,4.965902 -0.835699,10.435422 -2.263598,15.012755 -0.301262,0.965733 -0.898319,2.871611 -1.326798,4.235288 -1.544178,4.914496 -2.557083,10.319533 -2.776515,14.815985 -0.131613,2.697004 -0.0984,3.219094 0.988859,15.539519 0.728401,8.254029 0.739547,9.917359 0.07734,11.542905 -0.531386,1.304434 -1.738027,2.438066 -3.165528,2.973999 -1.080365,0.405607 -1.086784,0.405851 -11.629391,0.440848 -7.838336,0.02602 -10.822422,-0.02113 -11.61489,-0.183511 z m 4.743679,-8.89205 c 0.241316,-0.356084 0.232963,-3.09884 -0.01071,-3.523298 -0.171244,-0.298265 -0.407547,-0.339633 -1.940158,-0.339633 -1.106197,0 -1.827924,0.07714 -1.971201,0.210706 -0.1449,0.135071 -0.226039,0.825274 -0.226039,1.92274 0,1.441851 0.05203,1.741698 0.329638,1.899986 0.512701,0.292331 3.598203,0.154558 3.818491,-0.170501 z m 5.83931,0 c 0.265466,-0.391721 0.23108,-3.397875 -0.04177,-3.652225 -0.142692,-0.133013 -0.858107,-0.210706 -1.940157,-0.210706 -1.082053,0 -1.797471,0.07769 -1.940158,0.210706 -0.144902,0.135071 -0.226039,0.825274 -0.226039,1.92274 0,1.441851 0.05203,1.741698 0.329638,1.899986 0.512703,0.292331 3.598201,0.154558 3.818492,-0.170501 z m 5.727566,0.07526 c 0.372207,-0.346958 0.42937,-3.39245 0.06996,-3.727478 -0.142691,-0.133012 -0.858107,-0.210706 -1.940157,-0.210706 -1.08205,0 -1.797469,0.07769 -1.940158,0.210706 -0.1449,0.135071 -0.226036,0.825275 -0.226036,1.922741 0,2.059428 0.0088,2.067728 2.199831,2.07532 1.155124,0.0039 1.614611,-0.06369 1.836555,-0.270583 z m 5.95933,0.09416 c 0.342328,-0.17078 0.364346,-0.402933 0.364346,-3.841431 0,-2.9291 -0.05284,-3.700544 -0.26469,-3.864441 -0.166109,-0.12851 -0.815043,-0.185562 -1.742375,-0.153192 l -1.477683,0.05159 -0.05097,3.774847 c -0.04583,3.393889 -0.01845,3.797026 0.271459,3.994621 0.389494,0.265488 2.391348,0.291726 2.899917,0.03801 z M 70.612646,79.2943 c 0.189632,-0.460649 0.128417,-3.05698 -0.08066,-3.421143 -0.171244,-0.298266 -0.407548,-0.339633 -1.940158,-0.339633 -1.106198,0 -1.827926,0.07714 -1.971203,0.210706 -0.240967,0.224623 -0.329566,3.49719 -0.100455,3.710753 0.06907,0.06439 0.992403,0.11706 2.051861,0.11706 1.582753,0 1.946673,-0.04952 2.040619,-0.277743 z m 5.839309,0 c 0.21311,-0.517685 0.124632,-3.329769 -0.111701,-3.55007 -0.306651,-0.285849 -3.573663,-0.285849 -3.880315,0 -0.240967,0.224623 -0.329566,3.49719 -0.100455,3.710753 0.06907,0.06439 0.992404,0.11706 2.051859,0.11706 1.582755,0 1.946674,-0.04952 2.040619,-0.277743 z m 5.839309,0 c 0.21311,-0.517685 0.124631,-3.329769 -0.111702,-3.55007 -0.30665,-0.285849 -3.573665,-0.285849 -3.880315,0 -0.236332,0.220301 -0.324812,3.032385 -0.111701,3.55007 0.094,0.228355 0.458855,0.277742 2.051859,0.277742 1.593006,0 1.957856,-0.04939 2.051859,-0.277742 z m -11.79032,-6.078535 c 0.306651,-0.28585 0.306651,-3.331258 0,-3.617108 -0.306652,-0.28585 -3.573664,-0.28585 -3.880315,0 -0.240967,0.224623 -0.329565,3.497191 -0.100455,3.710755 0.229105,0.213564 3.73981,0.130979 3.980777,-0.09364 z m 5.839309,0 c 0.30665,-0.28585 0.30665,-3.331258 0,-3.617108 -0.306651,-0.28585 -3.573663,-0.28585 -3.880315,0 -0.236332,0.2203 -0.324813,3.032386 -0.111702,3.55007 0.09337,0.226834 0.449011,0.277744 1.940158,0.277744 1.16893,0 1.907145,-0.07581 2.051859,-0.210706 z m 5.951011,-0.06704 c 0.21311,-0.517684 0.124631,-3.32977 -0.111702,-3.550071 -0.30665,-0.28585 -3.573665,-0.28585 -3.880315,0 -0.236332,0.220301 -0.324812,3.032387 -0.111701,3.550071 0.094,0.228356 0.458855,0.277743 2.051859,0.277743 1.593006,0 1.957856,-0.04939 2.051859,-0.277743 z m 5.398983,-0.07864 c 0.460315,-0.229642 0.93139,-1.070688 0.93139,-1.662879 0,-0.592191 -0.471075,-1.433234 -0.93139,-1.66288 -0.548022,-0.273397 -1.755193,-0.216744 -2.248797,0.105543 -0.590907,0.385814 -0.986632,1.319412 -0.843006,1.988831 0.239052,1.114188 1.956016,1.798012 3.091803,1.231391 z M 71.574623,53.233869 v -0.965733 l -2.729831,-0.04897 c -2.402123,-0.0431 -2.758272,-0.01277 -2.966745,0.253045 -0.288538,0.367829 -0.30573,1.016067 -0.03926,1.480203 0.184634,0.321592 0.380106,0.341078 2.966744,0.295734 l 2.769087,-0.04854 z m 8.461385,0.482867 c 0.117057,-0.310681 0.116973,-0.655054 -1.88e-4,-0.965733 l -0.182172,-0.482867 h -2.820937 -2.820936 l -0.05898,0.766335 c -0.100301,1.303337 -0.18508,1.268134 2.923266,1.213741 l 2.778046,-0.04861 0.181941,-0.482867 z m 8.28293,0.292917 c 0.162488,-0.394716 0.136372,-1.349496 -0.04416,-1.614695 -0.11532,-0.169407 -0.841198,-0.212411 -2.963861,-0.175587 l -2.811127,0.04877 -0.05898,0.766335 c -0.09913,1.288216 -0.182301,1.252924 2.952566,1.252924 2.389708,0 2.828375,-0.04165 2.925566,-0.277743 z m 0.661271,-11.357536 c 0.249014,-0.119295 0.630454,-0.439933 0.847642,-0.71253 0.389613,-0.489013 0.395573,-0.640992 0.446171,-11.379923 0.03462,-7.345246 -0.01444,-11.111816 -0.150845,-11.584036 -0.140423,-0.486104 -0.386118,-0.804315 -0.804744,-1.042254 -0.580873,-0.330155 -1.036144,-0.342536 -12.620224,-0.343169 -9.992818,-5.45e-4 -12.104432,0.04119 -12.532919,0.247747 -1.095002,0.527838 -1.067083,0.20321 -1.067083,12.40772 0,11.095076 0.0037,11.202693 0.394888,11.693839 0.760446,0.954599 0.404914,0.929503 13.167378,0.929503 9.048128,0 11.974529,-0.05152 12.319736,-0.216897 z"
     id="path89" />
</svg>
