<?xml version="1.0" encoding="UTF-8" standalone="no"?>
<svg
   id="Vrstva_1"
   viewBox="0 0 100 100"
   version="1.1"
   sodipodi:docname="grouping.svg"
   inkscape:version="1.1.2 (0a00cf5339, 2022-02-04)"
   xmlns:inkscape="http://www.inkscape.org/namespaces/inkscape"
   xmlns:sodipodi="http://sodipodi.sourceforge.net/DTD/sodipodi-0.dtd"
   xmlns="http://www.w3.org/2000/svg"
   xmlns:svg="http://www.w3.org/2000/svg">
  <sodipodi:namedview
     id="namedview13"
     pagecolor="#ffffff"
     bordercolor="#666666"
     borderopacity="1.0"
     inkscape:pageshadow="2"
     inkscape:pageopacity="0.0"
     inkscape:pagecheckerboard="0"
     showgrid="false"
     inkscape:zoom="7.82"
     inkscape:cx="49.936061"
     inkscape:cy="49.936061"
     inkscape:window-width="1876"
     inkscape:window-height="1016"
     inkscape:window-x="0"
     inkscape:window-y="0"
     inkscape:window-maximized="1"
     inkscape:current-layer="Vrstva_1" />
  <defs
     id="defs4">
    <style
       id="style2">.cls-1{fill:#717171;}</style>
  </defs>
  <path
     style="fill:#000000;stroke-width:0.158649"
     d="M 15.605013,38.669153 C 10.917141,31.83115 4.1578194,21.770338 3.8054334,21.106248 1.1911794,16.179547 2.2495764,10.321323 6.4594994,6.4160083 9.1905034,3.8826055 12.432123,2.6507672 16.301601,2.6759424 c 2.317546,0.015073 3.905285,0.3671775 6.000647,1.330713 4.339096,1.9953019 7.261312,6.0719046 7.589547,10.5877056 0.162711,2.238527 -0.368379,4.719478 -1.421984,6.642708 -0.280937,0.512823 -12.020284,17.940494 -12.257952,18.19757 -0.02592,0.02803 -0.298996,-0.316437 -0.606846,-0.765486 z m 2.098932,-17.664764 c 1.732038,-0.420118 3.117627,-1.460931 3.920748,-2.945143 0.501214,-0.926277 0.636877,-1.532009 0.624197,-2.787012 -0.02135,-2.112459 -1.412569,-4.087164 -3.517105,-4.992182 -0.910267,-0.3914439 -1.218034,-0.444126 -2.594586,-0.444126 -1.347643,0 -1.689751,0.055846 -2.494813,0.407301 -1.251293,0.546251 -2.274952,1.456808 -2.940994,2.616047 -0.481653,0.838312 -0.557912,1.128291 -0.614087,2.335053 -0.05329,1.144753 -0.0029,1.529238 0.29783,2.272523 0.692961,1.71273 2.327045,3.079855 4.262043,3.565759 1.032156,0.259187 1.905085,0.251129 3.056767,-0.02822 z"
     id="path89" />
  <path
     style="fill:#000000;stroke-width:0.158649"
     d="m 48.995066,96.975635 c -1.974673,-0.605971 -3.478544,-1.849664 -4.443281,-3.674575 -0.506211,-0.957561 -0.531822,-1.09095 -0.531822,-2.769845 0,-1.663936 0.02957,-1.821952 0.522007,-2.789959 L 45.063977,86.715133 32.156923,70.44128 C 25.058043,61.490661 19.157948,54.078483 19.0456,53.969773 18.889698,53.818918 18.610761,53.805813 17.867543,53.914427 14.815801,54.36041 11.690142,52.803093 10.271334,50.129721 9.6726022,49.001566 9.6600974,48.941825 9.6600974,47.209447 c 0,-1.680696 0.026248,-1.81852 0.5285186,-2.774286 2.767603,-5.266539 10.513074,-5.306811 13.197621,-0.06863 0.264146,0.515413 0.529877,1.226045 0.590518,1.579184 0.0993,0.578343 0.169368,0.656596 0.705857,0.788401 0.327583,0.08047 12.420651,3.01005 26.873483,6.510155 l 26.277878,6.363824 0.855394,-0.806624 c 1.96948,-1.857198 4.778071,-2.554686 7.320167,-1.817899 4.016877,1.16423 6.149191,5.172933 4.716873,8.867617 -0.640185,1.651359 -2.477203,3.354379 -4.268599,3.957226 -1.691426,0.569206 -3.789501,0.529419 -5.319591,-0.100855 l -0.696016,-0.286711 -11.141865,9.191479 c -6.128024,5.055315 -11.194438,9.236786 -11.258695,9.292159 -0.06426,0.05537 -6e-5,0.471638 0.142664,0.925034 0.342373,1.087639 0.227596,3.004956 -0.248321,4.148039 -0.699888,1.681039 -2.324526,3.194684 -4.134145,3.851708 -1.285609,0.466768 -3.539082,0.53539 -4.806773,0.146375 z M 65.954352,75.229469 C 74.175728,68.44184 77.133,65.914142 77.05951,65.737447 77.00441,65.60499 76.880952,65.181873 76.785132,64.797185 L 76.610917,64.097756 50.122562,57.6895 C 35.553965,54.164957 23.54173,51.251551 23.428705,51.215257 c -0.113029,-0.0363 -0.205501,-0.003 -0.205501,0.07387 0,0.07692 5.788979,7.433453 12.864398,16.347849 l 12.864399,16.207995 2.055016,0.01156 c 1.751792,0.01 2.164176,0.06046 2.794822,0.342477 0.406893,0.181953 0.786468,0.31974 0.843501,0.306194 0.05703,-0.01355 5.146087,-4.187669 11.309012,-9.275825 z"
     id="path128" />
  <path
     style="fill:#000000;stroke-width:0.158649"
     d="M 83.655364,55.115709 C 82.07288,53.006858 71.631603,37.333054 71.279393,36.537664 70.183934,34.063806 69.925461,30.952203 70.612,28.503287 c 1.682049,-5.999948 7.414337,-9.966334 13.985324,-9.676973 3.962173,0.174481 7.268844,1.665404 9.824968,4.429922 1.133963,1.226412 2.482598,3.580738 2.917983,5.093955 0.422111,1.467079 0.502723,4.0678 0.173453,5.595972 -0.517937,2.403787 -1.040622,3.300616 -7.311992,12.546039 -3.284229,4.841696 -6.027635,8.860063 -6.096457,8.929702 -0.06881,0.06965 -0.271283,-0.06814 -0.449915,-0.306195 z M 86.582447,36.79944 c 3.08494,-1.375044 4.401341,-4.876346 2.91392,-7.750307 -0.465543,-0.899512 -1.811162,-2.150422 -2.781979,-2.586172 -3.103757,-1.39312 -6.787366,-0.198609 -8.313728,2.695954 -0.41241,0.782088 -0.461587,1.038449 -0.461587,2.406316 0,1.334239 0.05567,1.641535 0.433225,2.391378 0.763089,1.515536 2.102033,2.61892 3.806033,3.136437 1.134988,0.344705 3.295141,0.200694 4.404116,-0.293606 z"
     id="path167" />
</svg>
