<?xml version="1.0" encoding="UTF-8"?>
<svg width="24px" height="24px" viewBox="0 0 24 24" version="1.1" xmlns="http://www.w3.org/2000/svg">    
    <path fill="currentColor" d="M 5 3 C 3.895 3 3 3.895 3 5 L 3 19 C 3 20.105 3.895 21 5 21 L 5 22 L 7 22 L 7 21 L 17 21 L 17 22 L 19 22 L 19 21 C 20.105 21 21 20.105 21 19 L 21 5 C 21 3.895 20.105 3 19 3 L 5 3 z M 5 5 L 11 5 L 11 15 L 5 15 L 5 5 z M 13 5 L 19 5 L 19 15 L 13 15 L 13 5 z M 8 9 L 8 11 L 10 11 L 10 9 L 8 9 z M 14 9 L 14 11 L 16 11 L 16 9 L 14 9 z M 5 17 L 19 17 L 19 19 L 5 19 L 5 17 z"></path>
</svg>