<?xml version="1.0" encoding="UTF-8" standalone="no"?>
<svg
   width="24px"
   height="24px"
   viewBox="0 0 24 24"
   version="1.1"
   id="svg4702"
   sodipodi:docname="log.svg"
   inkscape:version="1.1.2 (0a00cf5339, 2022-02-04)"
   xmlns:inkscape="http://www.inkscape.org/namespaces/inkscape"
   xmlns:sodipodi="http://sodipodi.sourceforge.net/DTD/sodipodi-0.dtd"
   xmlns="http://www.w3.org/2000/svg"
   xmlns:svg="http://www.w3.org/2000/svg">
  <sodipodi:namedview
     id="namedview4704"
     pagecolor="#ffffff"
     bordercolor="#666666"
     borderopacity="1.0"
     inkscape:pageshadow="2"
     inkscape:pageopacity="0.0"
     inkscape:pagecheckerboard="0"
     showgrid="false"
     inkscape:zoom="32.583333"
     inkscape:cx="11.984655"
     inkscape:cy="11.984655"
     inkscape:window-width="1876"
     inkscape:window-height="1016"
     inkscape:window-x="0"
     inkscape:window-y="0"
     inkscape:window-maximized="1"
     inkscape:current-layer="svg4702" />
  <defs
     id="defs4697" />
  <g
     id="Stockholm-icons-/-General-/-Binocular"
     stroke="none"
     stroke-width="1"
     fill="none"
     fill-rule="evenodd">
    <rect
       id="bound"
       x="0"
       y="0"
       width="24"
       height="24" />
    <path
       d="M12.8434797,16 L11.1565203,16 L10.9852159,16.6393167 C10.3352654,19.064965 7.84199997,20.5044524 5.41635172,19.8545019 C2.99070348,19.2045514 1.55121603,16.711286 2.20116652,14.2856378 L3.92086709,7.86762789 C4.57081758,5.44197964 7.06408298,4.00249219 9.48973122,4.65244268 C10.5421727,4.93444352 11.4089671,5.56345262 12,6.38338695 C12.5910329,5.56345262 13.4578273,4.93444352 14.5102688,4.65244268 C16.935917,4.00249219 19.4291824,5.44197964 20.0791329,7.86762789 L21.7988335,14.2856378 C22.448784,16.711286 21.0092965,19.2045514 18.5836483,19.8545019 C16.158,20.5044524 13.6647346,19.064965 13.0147841,16.6393167 L12.8434797,16 Z M17.4563502,18.1051865 C18.9630797,18.1051865 20.1845253,16.8377967 20.1845253,15.2743923 C20.1845253,13.7109878 18.9630797,12.4435981 17.4563502,12.4435981 C15.9496207,12.4435981 14.7281751,13.7109878 14.7281751,15.2743923 C14.7281751,16.8377967 15.9496207,18.1051865 17.4563502,18.1051865 Z M6.54364977,18.1051865 C8.05037928,18.1051865 9.27182488,16.8377967 9.27182488,15.2743923 C9.27182488,13.7109878 8.05037928,12.4435981 6.54364977,12.4435981 C5.03692026,12.4435981 3.81547465,13.7109878 3.81547465,15.2743923 C3.81547465,16.8377967 5.03692026,18.1051865 6.54364977,18.1051865 Z"
       id="Combined-Shape"
       fill="#000000" />
  </g>
  <path
     style="fill:#000000;stroke-width:0.0306905"
     d="M 6.0215975,19.961043 C 5.488374,19.888996 4.7865939,19.650035 4.3389561,19.388092 3.1672346,18.702438 2.3913183,17.59566 2.1286601,16.235294 2.0578031,15.86831 2.0554716,15.079247 2.1241713,14.716113 2.1922898,14.35605 3.90436,7.962302 4.0378029,7.569631 4.6179379,5.8625176 6.2182297,4.63711 8.0056435,4.5312964 c 0.8521494,-0.050447 1.6019935,0.102218 2.3524125,0.47894 0.613839,0.3081565 1.163914,0.7670126 1.57289,1.3120576 L 12,6.4143223 12.06897,6.3222503 c 0.704217,-0.9401354 1.772744,-1.57103 2.990373,-1.7656176 0.303349,-0.048478 1.021012,-0.039698 1.344752,0.016452 1.674917,0.2904989 3.025207,1.4276989 3.558042,2.996546 0.135629,0.3993376 1.847278,6.7927563 1.913226,7.1463573 0.06938,0.372009 0.0661,1.154883 -0.0064,1.534651 -0.354871,1.857955 -1.726616,3.256806 -3.586923,3.657803 -0.448041,0.09658 -1.313673,0.09715 -1.747731,0.0012 -1.302241,-0.287994 -2.37716,-1.051927 -3.032639,-2.155262 -0.239203,-0.402638 -0.408502,-0.859542 -0.61119,-1.649478 L 12.85701,15.974468 H 12 11.143031 l -0.03347,0.130434 c -0.126971,0.494843 -0.257119,0.909214 -0.36193,1.152324 -0.581091,1.347854 -1.789738,2.327594 -3.2661879,2.647603 -0.3351993,0.07265 -1.1158579,0.102735 -1.4598476,0.05626 z m 0.975845,-1.881574 c 1.0000413,-0.178789 1.8291946,-0.91045 2.1420764,-1.890211 0.1658213,-0.519253 0.1876195,-1.127196 0.058336,-1.62695 -0.2699014,-1.043324 -1.0396336,-1.822045 -2.0345852,-2.058346 -0.3192728,-0.07583 -0.8491639,-0.08367 -1.1675868,-0.01727 -1.0061565,0.209789 -1.8195246,1.001419 -2.1035523,2.047331 -0.099773,0.36741 -0.099641,1.122044 2.609e-4,1.48644 0.2168886,0.791114 0.7614096,1.467615 1.4631082,1.817735 0.5021466,0.250552 1.0992648,0.338295 1.6419438,0.241274 z M 18.122762,18.03204 c 0.460695,-0.119537 0.831529,-0.329305 1.19268,-0.674658 0.375188,-0.358776 0.652149,-0.826196 0.792167,-1.336922 0.0999,-0.364396 0.100034,-1.11903 2.46e-4,-1.48644 -0.240832,-0.886849 -0.855201,-1.590587 -1.674057,-1.917576 -0.629022,-0.251184 -1.452216,-0.234597 -2.061205,0.04153 -0.629005,0.285205 -1.181911,0.860558 -1.441931,1.50047 -0.194111,0.477711 -0.267532,1.181725 -0.171782,1.647181 0.245426,1.193049 1.089985,2.055085 2.228318,2.274429 0.290799,0.05603 0.820937,0.03362 1.13555,-0.04802 z"
     id="path4780" />
</svg>
