<?xml version="1.0" encoding="utf-8"?>
<!-- Svg Vector Icons : http://www.onlinewebfonts.com/icon -->
<!DOCTYPE svg PUBLIC "-//W3C//DTD SVG 1.1//EN" "http://www.w3.org/Graphics/SVG/1.1/DTD/svg11.dtd">
<svg version="1.1" xmlns="http://www.w3.org/2000/svg" xmlns:xlink="http://www.w3.org/1999/xlink" x="0px" y="0px" viewBox="0 0 1000 1000" enable-background="new 0 0 1000 1000" xml:space="preserve">
<metadata> Svg Vector Icons : http://www.onlinewebfonts.com/icon </metadata>
<g><g transform="translate(0.000000,511.000000) scale(0.100000,-0.100000)"><path d="M268.5,4464.4c-40.1-21.1-93-65.5-116.2-97.2l-44.4-59.2l-6.3-4176.7c-4.2-3944.3-2.1-4180.9,31.7-4248.5c21.1-40.1,65.5-92.9,97.2-116.2c59.2-44.4,78.2-44.4,1388-44.4s1328.8,0,1388,44.4c31.7,23.3,76,76.1,95.1,116.2c35.9,67.6,38,312.7,38,4223.2c0,3910.5-2.1,4155.6-38,4223.1c-19,40.1-63.4,93-95.1,116.2c-59.2,44.4-82.4,44.4-1362.6,50.7C435.4,4500.3,336.1,4498.2,268.5,4464.4z M2767.7,3608.8c48.6-67.6,42.3-198.6-8.5-249.3c-40.1-40.1-69.7-42.3-1134.5-42.3c-602.1,0-1104.9,8.4-1117.6,16.9c-71.8,46.5-93,196.5-38,274.6l31.7,46.5h1117.6H2736L2767.7,3608.8z M2767.7,2932.7c48.6-67.6,42.3-198.6-8.5-249.3c-40.1-40.1-69.7-42.3-1134.5-42.3c-602.1,0-1104.9,8.4-1117.6,16.9c-71.8,46.5-93,196.5-38,274.6l31.7,46.5h1117.6H2736L2767.7,2932.7z M2767.7,2256.7c48.6-67.6,42.3-198.6-8.5-249.3c-40.1-40.1-69.7-42.3-1134.5-42.3c-602.1,0-1104.9,8.4-1117.6,16.9c-71.8,46.5-93,196.5-38,274.6l31.7,46.5h1117.6H2736L2767.7,2256.7z M741.7,232.8c25.4-21.1,31.7-105.6,31.7-466.9c0-428.9,0-439.4-46.5-471.1c-25.3-19-80.3-33.8-122.5-33.8c-42.3,0-97.2,14.8-122.5,33.8c-46.5,31.7-46.5,42.3-46.5,458.4c0,234.5,8.4,437.3,16.9,450C500.9,275,669.9,291.9,741.7,232.8z M2759.3-3485.5c50.7-50.7,57-181.7,8.5-249.3l-31.7-46.5H1618.5H500.9l-31.7,46.5c-48.6,67.6-42.3,198.6,8.5,249.3c40.1,40.1,69.7,42.3,1140.8,42.3S2719.2-3445.3,2759.3-3485.5z"/><path d="M3648.7,4464.4c-40.1-21.1-93-65.5-116.2-97.2l-44.4-59.2l-6.3-4176.7c-4.2-3944.3-2.1-4180.9,31.7-4248.5c21.1-40.1,65.5-92.9,97.2-116.2c59.2-44.4,78.2-44.4,1388-44.4c1309.8,0,1328.9,0,1388,44.4c31.7,23.3,76,76.1,95.1,116.2c35.9,67.6,38,312.7,38,4223.2c0,3910.5-2.1,4155.6-38,4223.1c-19,40.1-63.4,93-95.1,116.2c-59.2,44.4-82.4,44.4-1362.7,50.7C3815.6,4500.3,3716.3,4498.2,3648.7,4464.4z M6148,3608.8c48.6-67.6,42.3-190.1-8.5-245.1l-44.4-46.5H4998.7H3902.2l-44.4,46.5c-50.7,54.9-57,177.5-8.4,245.1l31.7,46.5h1117.6h1117.6L6148,3608.8z M6148,2932.7c48.6-67.6,42.3-190.1-8.5-245.1l-44.4-46.5H4998.7c-1071.1,0-1100.7,2.1-1140.8,42.3c-50.7,50.7-57,181.7-8.4,249.3l31.7,46.5h1117.6h1117.6L6148,2932.7z M6148,2256.7c48.6-67.6,42.3-190.1-8.5-245.1l-44.4-46.5H4998.7c-1071.1,0-1100.7,2.1-1140.8,42.3c-50.7,50.7-57,181.7-8.4,249.3l31.7,46.5h1117.6h1117.6L6148,2256.7z M4126.2,220.1c21.1-27.5,27.5-150,27.5-464.8c0-418.3-2.1-428.9-46.5-460.5c-25.3-19-80.3-33.8-122.5-33.8c-42.3,0-97.2,14.8-122.5,33.8c-46.5,31.7-46.5,42.3-46.5,458.4c0,234.5,8.4,437.3,16.9,450C3885.3,281.4,4073.3,291.9,4126.2,220.1z M6139.5-3485.5c50.7-50.7,57.1-181.7,8.5-249.3l-31.7-46.5H4998.7H3881.1l-31.7,46.5c-48.6,67.6-42.3,198.6,8.4,249.3c40.1,40.1,69.7,42.3,1140.8,42.3C6069.8-3443.2,6099.4-3445.3,6139.5-3485.5z"/><path d="M7028.9,4464.4c-40.1-21.1-92.9-65.5-116.2-97.2l-44.4-59.2L6862,131.4c-4.2-3944.3-2.1-4180.9,31.7-4248.5c21.1-40.1,65.5-92.9,97.2-116.2c59.2-44.4,78.2-44.4,1388-44.4c1309.8,0,1328.9,0,1388,44.4c31.7,23.3,76,76.1,95.1,116.2c35.9,67.6,38,312.7,38,4223.2c0,3910.5-2.1,4155.6-38,4223.1c-19,40.1-63.4,93-95.1,116.2c-59.2,44.4-82.4,44.4-1362.6,50.7C7195.8,4500.3,7096.5,4498.2,7028.9,4464.4z M9528.2,3608.8c54.9-78.2,33.8-228.2-38-274.6c-12.7-8.4-515.5-16.9-1115.5-16.9c-1066.9,0-1096.4,2.1-1136.6,42.3c-50.7,50.7-57.1,181.7-8.5,249.3l31.7,46.5h1117.6h1117.6L9528.2,3608.8z M9528.2,2932.7c54.9-78.2,33.8-228.2-38-274.6c-12.7-8.5-515.5-16.9-1115.5-16.9c-1066.9,0-1096.4,2.1-1136.6,42.3c-50.7,50.7-57.1,181.7-8.5,249.3l31.7,46.5h1117.6h1117.6L9528.2,2932.7z M9528.2,2256.7c54.9-78.2,33.8-228.2-38-274.6c-12.7-8.4-515.5-16.9-1115.5-16.9c-1066.9,0-1096.4,2.1-1136.6,42.3c-50.7,50.7-57.1,181.7-8.5,249.3l31.7,46.5h1117.6h1117.6L9528.2,2256.7z M7455.7,251.8c25.4-14.8,52.8-35.9,61.3-48.6c8.4-12.7,16.9-215.5,16.9-450c0-416.2,0-426.7-46.5-458.4c-63.4-44.4-192.2-42.3-247.2,4.2c-44.4,35.9-46.5,48.6-40.1,479.6l6.3,441.6l52.8,27.5C7324.7,281.4,7396.5,281.4,7455.7,251.8z M9490.1-3460.1c71.8-46.5,93-196.5,38-274.6l-31.7-46.5H8378.9H7261.3l-31.7,46.5c-19,25.4-33.8,80.3-33.8,122.5c0,42.3,14.8,97.2,33.8,122.5l31.7,46.5h1102.8C8970.4-3443.2,9477.5-3451.7,9490.1-3460.1z"/></g></g>
</svg>