<svg xmlns="http://www.w3.org/2000/svg" xmlns:xlink="http://www.w3.org/1999/xlink" version="1.1" width="256" height="256" viewBox="0 0 256 256" xml:space="preserve">

<defs>
</defs>
<g style="stroke: none; stroke-width: 0; stroke-dasharray: none; stroke-linecap: butt; stroke-linejoin: miter; stroke-miterlimit: 10; fill: none; fill-rule: nonzero; opacity: 1;" transform="translate(1.4065934065934016 1.4065934065934016) scale(2.81 2.81)" >
	<path d="M 37.695 49.048 H 4.643 C 2.631 49.048 1 47.417 1 45.405 v -29.53 c 0 -2.012 1.631 -3.643 3.643 -3.643 h 47.662 h 33.052 c 2.012 0 3.643 1.631 3.643 3.643 v 29.53 c 0 2.012 -1.631 3.643 -3.643 3.643 H 52.406" style="stroke: none; stroke-width: 1; stroke-dasharray: none; stroke-linecap: butt; stroke-linejoin: miter; stroke-miterlimit: 10; fill: rgb(0,193,252); fill-rule: nonzero; opacity: 1;" transform=" matrix(1 0 0 1 0 0) " stroke-linecap="round" />
	<path d="M 25.491 37.279 h -6.039 c -0.552 0 -1 -0.448 -1 -1 V 25 c 0 -0.552 0.448 -1 1 -1 h 6.039 c 0.552 0 1 0.448 1 1 s -0.448 1 -1 1 h -5.039 v 9.279 h 5.039 c 0.552 0 1 0.448 1 1 S 26.043 37.279 25.491 37.279 z" style="stroke: none; stroke-width: 1; stroke-dasharray: none; stroke-linecap: butt; stroke-linejoin: miter; stroke-miterlimit: 10; fill: rgb(0,0,0); fill-rule: nonzero; opacity: 1;" transform=" matrix(1 0 0 1 0 0) " stroke-linecap="round" />
	<path d="M 25.491 31.64 h -6.039 c -0.552 0 -1 -0.448 -1 -1 s 0.448 -1 1 -1 h 6.039 c 0.552 0 1 0.448 1 1 S 26.043 31.64 25.491 31.64 z" style="stroke: none; stroke-width: 1; stroke-dasharray: none; stroke-linecap: butt; stroke-linejoin: miter; stroke-miterlimit: 10; fill: rgb(0,0,0); fill-rule: nonzero; opacity: 1;" transform=" matrix(1 0 0 1 0 0) " stroke-linecap="round" />
	<path d="M 34.76 37.279 h -3.68 c -0.552 0 -1 -0.448 -1 -1 s 0.448 -1 1 -1 h 3.68 c 0.529 0 0.959 -0.43 0.959 -0.959 v -1.721 c 0 -0.529 -0.43 -0.959 -0.959 -0.959 h -2.049 c -1.631 0 -2.959 -1.328 -2.959 -2.959 v -1.722 c 0 -1.632 1.328 -2.959 2.959 -2.959 h 2.642 c 0.552 0 1 0.448 1 1 s -0.448 1 -1 1 h -2.642 c -0.529 0 -0.959 0.43 -0.959 0.959 v 1.722 c 0 0.529 0.43 0.959 0.959 0.959 h 2.049 c 1.631 0 2.959 1.327 2.959 2.959 v 1.721 C 37.719 35.952 36.392 37.279 34.76 37.279 z" style="stroke: none; stroke-width: 1; stroke-dasharray: none; stroke-linecap: butt; stroke-linejoin: miter; stroke-miterlimit: 10; fill: rgb(0,0,0); fill-rule: nonzero; opacity: 1;" transform=" matrix(1 0 0 1 0 0) " stroke-linecap="round" />
	<path d="M 12.07 31.64 H 8.188 c -0.552 0 -1 -0.448 -1 -1 V 25 c 0 -0.552 0.448 -1 1 -1 h 3.882 c 1.74 0 3.156 1.416 3.156 3.156 v 1.327 C 15.227 30.224 13.811 31.64 12.07 31.64 z M 9.188 29.64 h 2.882 c 0.638 0 1.156 -0.519 1.156 -1.157 v -1.327 c 0 -0.638 -0.519 -1.156 -1.156 -1.156 H 9.188 V 29.64 z" style="stroke: none; stroke-width: 1; stroke-dasharray: none; stroke-linecap: butt; stroke-linejoin: miter; stroke-miterlimit: 10; fill: rgb(0,0,0); fill-rule: nonzero; opacity: 1;" transform=" matrix(1 0 0 1 0 0) " stroke-linecap="round" />
	<path d="M 14.227 37.279 c -0.552 0 -1 -0.448 -1 -1 v -3.483 c 0 -0.638 -0.519 -1.156 -1.156 -1.156 H 9.188 v 4.639 c 0 0.552 -0.448 1 -1 1 s -1 -0.448 -1 -1 V 30.64 c 0 -0.552 0.448 -1 1 -1 h 3.882 c 1.74 0 3.156 1.416 3.156 3.156 v 3.483 C 15.227 36.832 14.779 37.279 14.227 37.279 z" style="stroke: none; stroke-width: 1; stroke-dasharray: none; stroke-linecap: butt; stroke-linejoin: miter; stroke-miterlimit: 10; fill: rgb(0,0,0); fill-rule: nonzero; opacity: 1;" transform=" matrix(1 0 0 1 0 0) " stroke-linecap="round" />
	<path d="M 48.02 37.279 H 41.98 c -0.552 0 -1 -0.448 -1 -1 V 25 c 0 -0.552 0.448 -1 1 -1 h 6.039 c 0.553 0 1 0.448 1 1 s -0.447 1 -1 1 H 42.98 v 9.279 h 5.039 c 0.553 0 1 0.448 1 1 S 48.572 37.279 48.02 37.279 z" style="stroke: none; stroke-width: 1; stroke-dasharray: none; stroke-linecap: butt; stroke-linejoin: miter; stroke-miterlimit: 10; fill: rgb(0,0,0); fill-rule: nonzero; opacity: 1;" transform=" matrix(1 0 0 1 0 0) " stroke-linecap="round" />
	<path d="M 48.02 31.64 H 41.98 c -0.552 0 -1 -0.448 -1 -1 s 0.448 -1 1 -1 h 6.039 c 0.553 0 1 0.448 1 1 S 48.572 31.64 48.02 31.64 z" style="stroke: none; stroke-width: 1; stroke-dasharray: none; stroke-linecap: butt; stroke-linejoin: miter; stroke-miterlimit: 10; fill: rgb(0,0,0); fill-rule: nonzero; opacity: 1;" transform=" matrix(1 0 0 1 0 0) " stroke-linecap="round" />
	<path d="M 57.127 31.64 h -3.882 c -0.553 0 -1 -0.448 -1 -1 V 25 c 0 -0.552 0.447 -1 1 -1 h 3.882 c 1.74 0 3.156 1.416 3.156 3.156 v 1.327 C 60.283 30.224 58.867 31.64 57.127 31.64 z M 54.245 29.64 h 2.882 c 0.638 0 1.156 -0.519 1.156 -1.157 v -1.327 c 0 -0.638 -0.519 -1.156 -1.156 -1.156 h -2.882 V 29.64 z" style="stroke: none; stroke-width: 1; stroke-dasharray: none; stroke-linecap: butt; stroke-linejoin: miter; stroke-miterlimit: 10; fill: rgb(0,0,0); fill-rule: nonzero; opacity: 1;" transform=" matrix(1 0 0 1 0 0) " stroke-linecap="round" />
	<path d="M 59.283 37.279 c -0.553 0 -1 -0.448 -1 -1 v -3.483 c 0 -0.638 -0.519 -1.156 -1.156 -1.156 h -2.882 v 4.639 c 0 0.552 -0.447 1 -1 1 s -1 -0.448 -1 -1 V 30.64 c 0 -0.552 0.447 -1 1 -1 h 3.882 c 1.74 0 3.156 1.416 3.156 3.156 v 3.483 C 60.283 36.832 59.836 37.279 59.283 37.279 z" style="stroke: none; stroke-width: 1; stroke-dasharray: none; stroke-linecap: butt; stroke-linejoin: miter; stroke-miterlimit: 10; fill: rgb(0,0,0); fill-rule: nonzero; opacity: 1;" transform=" matrix(1 0 0 1 0 0) " stroke-linecap="round" />
	<path d="M 67.615 37.279 c -0.423 0 -0.8 -0.266 -0.942 -0.664 l -4.021 -11.279 c -0.185 -0.521 0.086 -1.092 0.606 -1.278 c 0.522 -0.186 1.092 0.086 1.278 0.606 l 3.058 8.578 l 2.921 -8.565 c 0.178 -0.523 0.745 -0.802 1.27 -0.624 c 0.522 0.178 0.802 0.747 0.623 1.269 l -3.847 11.279 c -0.137 0.403 -0.514 0.674 -0.939 0.677 C 67.62 37.279 67.617 37.279 67.615 37.279 z" style="stroke: none; stroke-width: 1; stroke-dasharray: none; stroke-linecap: butt; stroke-linejoin: miter; stroke-miterlimit: 10; fill: rgb(0,0,0); fill-rule: nonzero; opacity: 1;" transform=" matrix(1 0 0 1 0 0) " stroke-linecap="round" />
	<path d="M 81.813 37.279 h -6.039 c -0.553 0 -1 -0.448 -1 -1 V 25 c 0 -0.552 0.447 -1 1 -1 h 6.039 c 0.553 0 1 0.448 1 1 s -0.447 1 -1 1 h -5.039 v 9.279 h 5.039 c 0.553 0 1 0.448 1 1 S 82.365 37.279 81.813 37.279 z" style="stroke: none; stroke-width: 1; stroke-dasharray: none; stroke-linecap: butt; stroke-linejoin: miter; stroke-miterlimit: 10; fill: rgb(0,0,0); fill-rule: nonzero; opacity: 1;" transform=" matrix(1 0 0 1 0 0) " stroke-linecap="round" />
	<path d="M 81.813 31.64 h -6.039 c -0.553 0 -1 -0.448 -1 -1 s 0.447 -1 1 -1 h 6.039 c 0.553 0 1 0.448 1 1 S 82.365 31.64 81.813 31.64 z" style="stroke: none; stroke-width: 1; stroke-dasharray: none; stroke-linecap: butt; stroke-linejoin: miter; stroke-miterlimit: 10; fill: rgb(0,0,0); fill-rule: nonzero; opacity: 1;" transform=" matrix(1 0 0 1 0 0) " stroke-linecap="round" />
	<path d="M 85.357 50.048 H 4.643 C 2.083 50.048 0 47.965 0 45.405 v -29.53 c 0 -2.56 2.083 -4.643 4.643 -4.643 h 80.714 c 2.56 0 4.643 2.083 4.643 4.643 v 29.53 C 90 47.965 87.917 50.048 85.357 50.048 z M 4.643 13.232 C 3.186 13.232 2 14.417 2 15.875 v 29.53 c 0 1.458 1.186 2.643 2.643 2.643 h 80.714 c 1.457 0 2.643 -1.186 2.643 -2.643 v -29.53 c 0 -1.458 -1.186 -2.643 -2.643 -2.643 H 4.643 z" style="stroke: none; stroke-width: 1; stroke-dasharray: none; stroke-linecap: butt; stroke-linejoin: miter; stroke-miterlimit: 10; fill: rgb(0,0,0); fill-rule: nonzero; opacity: 1;" transform=" matrix(1 0 0 1 0 0) " stroke-linecap="round" />
	<path d="M 36.586 63.394 V 44.689 c 0 -1.363 1.115 -2.478 2.478 -2.478 h 0.24 c 1.363 0 2.478 1.115 2.478 2.478 v 8.353 c 0 -1.363 1.115 -2.478 2.478 -2.478 h 0.24 c 1.363 0 2.478 1.115 2.478 2.478 V 54.8 c 0 -1.363 1.115 -2.478 2.478 -2.478 h 0.24 c 1.363 0 2.478 1.115 2.478 2.478 v 2.478 c 0 -1.363 1.115 -2.478 2.478 -2.478 h 0.24 c 1.363 0 2.478 1.115 2.478 2.478 v 5.834 v 2.786 v 0.747 c 0 2.564 -0.941 4.919 -2.495 6.737 l -0.001 0 v 2.74 c 0 0.91 -0.737 1.647 -1.647 1.647 H 40.637 c -0.91 0 -1.647 -0.737 -1.647 -1.647 v -2.86 l 0 0 l -5.283 -6.531 c -1.72 -2.127 -1.341 -5.255 0.838 -6.909 l 2.041 -1.55" style="stroke: none; stroke-width: 1; stroke-dasharray: none; stroke-linecap: butt; stroke-linejoin: miter; stroke-miterlimit: 10; fill: rgb(255,200,159); fill-rule: nonzero; opacity: 1;" transform=" matrix(1 0 0 1 0 0) " stroke-linecap="round" />
	<path d="M 53.222 78.769 h -12.58 c -1.458 0 -2.646 -1.187 -2.646 -2.646 v -2.504 l -5.056 -6.25 c -1.003 -1.24 -1.45 -2.795 -1.258 -4.378 s 0.998 -2.985 2.268 -3.95 l 1.644 -1.247 V 44.72 c 0 -1.917 1.56 -3.476 3.476 -3.476 h 0.24 c 1.917 0 3.476 1.559 3.476 3.476 v 5.198 c 0.448 -0.211 0.948 -0.329 1.476 -0.329 h 0.24 c 1.47 0 2.73 0.918 3.237 2.21 c 0.506 -0.288 1.092 -0.453 1.715 -0.453 h 0.239 c 1.697 0 3.115 1.223 3.417 2.833 c 0.463 -0.229 0.984 -0.357 1.535 -0.357 h 0.24 c 1.916 0 3.476 1.56 3.476 3.477 v 9.357 c 0 2.573 -0.883 5.076 -2.493 7.09 v 2.378 C 55.867 77.582 54.681 78.769 53.222 78.769 z M 35.594 60.305 l -0.435 0.33 c -0.835 0.634 -1.365 1.557 -1.491 2.598 c -0.126 1.041 0.167 2.063 0.827 2.879 l 5.278 6.525 c 0.144 0.178 0.223 0.4 0.223 0.629 v 2.857 c 0 0.355 0.29 0.646 0.646 0.646 h 12.58 c 0.355 0 0.646 -0.29 0.646 -0.646 v -2.737 c 0 -0.238 0.085 -0.469 0.24 -0.65 c 1.453 -1.698 2.253 -3.857 2.253 -6.08 v -9.357 c 0 -0.814 -0.662 -1.477 -1.476 -1.477 h -0.24 c -0.813 0 -1.476 0.662 -1.476 1.477 c 0 0.553 -0.447 1 -1 1 s -1 -0.447 -1 -1 v -2.477 c 0 -0.813 -0.662 -1.476 -1.477 -1.476 h -0.239 c -0.814 0 -1.477 0.662 -1.477 1.476 c 0 0.553 -0.447 1 -1 1 s -1 -0.447 -1 -1 v -1.757 c 0 -0.813 -0.662 -1.476 -1.475 -1.476 h -0.24 c -0.813 0 -1.476 0.662 -1.476 1.476 c 0 0.553 -0.448 1 -1 1 s -1 -0.447 -1 -1 V 44.72 c 0 -0.813 -0.662 -1.476 -1.476 -1.476 h -0.24 c -0.814 0 -1.476 0.662 -1.476 1.476 v 13.559 c 0 0.008 0 0.015 0 0.021 v 5.108 c 0 0.553 -0.448 1 -1 1 s -1 -0.447 -1 -1 V 60.305 z" style="stroke: none; stroke-width: 1; stroke-dasharray: none; stroke-linecap: butt; stroke-linejoin: miter; stroke-miterlimit: 10; fill: rgb(0,0,0); fill-rule: nonzero; opacity: 1;" transform=" matrix(1 0 0 1 0 0) " stroke-linecap="round" />
	<path d="M 41.791 61.006 c -0.552 0 -1 -0.447 -1 -0.999 l -0.005 -6.941 c 0 -0.553 0.447 -1.001 1 -1.001 h 0 c 0.552 0 1 0.447 1 0.999 l 0.005 6.941 C 42.791 60.558 42.344 61.006 41.791 61.006 L 41.791 61.006 z" style="stroke: none; stroke-width: 1; stroke-dasharray: none; stroke-linecap: butt; stroke-linejoin: miter; stroke-miterlimit: 10; fill: rgb(0,0,0); fill-rule: nonzero; opacity: 1;" transform=" matrix(1 0 0 1 0 0) " stroke-linecap="round" />
	<path d="M 46.982 61.006 c -0.552 0 -1 -0.447 -1 -0.999 l -0.006 -5.185 c 0 -0.552 0.446 -1 0.999 -1.001 h 0.001 c 0.552 0 0.999 0.447 1 0.999 l 0.006 5.185 C 47.983 60.557 47.536 61.005 46.982 61.006 L 46.982 61.006 z" style="stroke: none; stroke-width: 1; stroke-dasharray: none; stroke-linecap: butt; stroke-linejoin: miter; stroke-miterlimit: 10; fill: rgb(0,0,0); fill-rule: nonzero; opacity: 1;" transform=" matrix(1 0 0 1 0 0) " stroke-linecap="round" />
	<path d="M 52.169 61.006 c -0.553 0 -1 -0.447 -1 -1 v -2.708 c 0 -0.553 0.447 -1 1 -1 s 1 0.447 1 1 v 2.708 C 53.169 60.559 52.722 61.006 52.169 61.006 z" style="stroke: none; stroke-width: 1; stroke-dasharray: none; stroke-linecap: butt; stroke-linejoin: miter; stroke-miterlimit: 10; fill: rgb(0,0,0); fill-rule: nonzero; opacity: 1;" transform=" matrix(1 0 0 1 0 0) " stroke-linecap="round" />
</g>
</svg>