<?xml version="1.0" encoding="UTF-8" standalone="no"?>
<svg
   id="Layer_1"
   data-name="Layer 1"
   viewBox="0 0 98.18 122.88"
   version="1.1"
   sodipodi:docname="rules-icon.svg"
   inkscape:version="1.1.2 (0a00cf5339, 2022-02-04)"
   xmlns:inkscape="http://www.inkscape.org/namespaces/inkscape"
   xmlns:sodipodi="http://sodipodi.sourceforge.net/DTD/sodipodi-0.dtd"
   xmlns="http://www.w3.org/2000/svg"
   xmlns:svg="http://www.w3.org/2000/svg">
  <sodipodi:namedview
     id="namedview11"
     pagecolor="#ffffff"
     bordercolor="#666666"
     borderopacity="1.0"
     inkscape:pageshadow="2"
     inkscape:pageopacity="0.0"
     inkscape:pagecheckerboard="0"
     showgrid="false"
     inkscape:zoom="6.3639324"
     inkscape:cx="49.104858"
     inkscape:cy="61.518566"
     inkscape:window-width="1876"
     inkscape:window-height="1016"
     inkscape:window-x="0"
     inkscape:window-y="0"
     inkscape:window-maximized="1"
     inkscape:current-layer="Layer_1" />
  <defs
     id="defs4">
    <style
       id="style2">.cls-1{fill-rule:evenodd;}</style>
  </defs>
  <title
     id="title6">rules</title>
  <path
     class="cls-1"
     d="M27.23,65.62a1.75,1.75,0,0,1,2.5,0,1.8,1.8,0,0,1,0,2.53l-3,3.06,3,3.06a1.77,1.77,0,0,1-2.51,2.51l-3-3-3,3a1.75,1.75,0,0,1-2.5,0,1.81,1.81,0,0,1,0-2.53l3-3.06-3-3.06a1.78,1.78,0,0,1,0-2.51,1.74,1.74,0,0,1,2.48,0l3,3,3-3ZM25.85,22A3.93,3.93,0,0,1,22,18.12V16.81H5.71a.62.62,0,0,0-.59.6v99.71a.6.6,0,0,0,.59.59H92.47a.6.6,0,0,0,.59-.59V17.41a.62.62,0,0,0-.59-.59H76.53v1.31A3.93,3.93,0,0,1,72.65,22ZM5.75,122.88A5.76,5.76,0,0,1,0,117.13V17.41a5.76,5.76,0,0,1,5.75-5.75H22V10.44A3.91,3.91,0,0,1,25.9,6.55h6.92V4.3A4.36,4.36,0,0,1,37.11,0h24a4.37,4.37,0,0,1,4.3,4.3V6.56H72.6a3.91,3.91,0,0,1,3.89,3.89v1.22H92.43a5.76,5.76,0,0,1,5.75,5.75v99.71a5.76,5.76,0,0,1-5.75,5.75ZM78.19,99.05a2.6,2.6,0,0,0,0-5.2H43.57a2.6,2.6,0,1,0,0,5.2H78.19Zm0-50a2.6,2.6,0,1,0,0-5.2H43.57a2.6,2.6,0,0,0,0,5.2Zm0,24.64a2.6,2.6,0,1,0,0-5.2H43.57a2.6,2.6,0,1,0,0,5.2ZM18.83,96.31a2.31,2.31,0,0,1,3.84-2.57l1.26,1.87,5-6.07a2.3,2.3,0,1,1,3.56,2.92l-6.9,8.4a2.49,2.49,0,0,1-.55.52,2.31,2.31,0,0,1-3.2-.63l-3-4.44Zm.63-50.57a2.32,2.32,0,0,1,3.21.63l1.26,1.87,5-6.07a2.3,2.3,0,1,1,3.56,2.92l-6.9,8.4A2.49,2.49,0,0,1,25,54a2.31,2.31,0,0,1-3.2-.63l-3-4.44h0a2.31,2.31,0,0,1,.63-3.2Z"
     id="path8" />
  <path
     style="fill:#000000;stroke-width:0.157136"
     d="m 4.0376896,122.49363 c -1.5937713,-0.51029 -2.9330127,-1.7895 -3.59950885,-3.43815 L 0.07856777,118.16593 V 67.254014 16.342097 L 0.44321636,15.439092 C 0.95211811,14.178864 2.132179,12.936975 3.4263635,12.299646 l 1.0447214,-0.51448 8.8032301,-0.07857 8.803229,-0.07857 0.07857,-1.192064 c 0.0992,-1.5050942 0.655904,-2.4967764 1.798404,-3.2035768 l 0.768715,-0.4755607 4.038778,-0.046609 4.038776,-0.046609 0.07232,-1.6260829 c 0.08605,-1.9349022 0.52812,-3.0353525 1.581577,-3.9370718 1.223291,-1.0470921 0.861948,-1.02188753 14.650176,-1.02188753 13.809058,0 13.424621,-0.02714231 14.666036,1.03546323 1.098714,0.9404572 1.479851,1.8839729 1.565335,3.8750226 l 0.07253,1.6892071 4.026057,0.00345 c 4.488792,0.00385 4.769808,0.057366 5.821028,1.1085852 0.779633,0.7796335 1.104543,1.6147294 1.108585,2.8493216 l 0.0035,1.054349 8.603171,0.0456 c 8.565958,0.0454 8.607046,0.04717 9.4991,0.407601 1.18338,0.478146 2.303593,1.509813 2.96604,2.731591 l 0.53782,0.991932 v 51.383324 51.383329 l -0.344773,0.74651 c -0.514345,1.11368 -1.771651,2.35689 -2.920131,2.88738 l -0.977756,0.45163 -44.390791,0.0314 c -42.8791119,0.0303 -44.4218522,0.0215 -45.3028724,-0.26063 z m 88.9810254,-5.02448 c 0.11115,-0.20769 0.162664,-16.1283 0.162664,-50.27215 0,-45.216132 -0.02348,-49.991693 -0.246928,-50.215137 -0.21806,-0.21806 -1.189049,-0.246927 -8.305619,-0.246927 H 76.57014 l -0.102177,1.099378 c -0.0562,0.604658 -0.215669,1.383025 -0.354383,1.729707 -0.316435,0.790848 -1.559066,1.923641 -2.379953,2.169585 -0.893553,0.267715 -48.043255,0.269649 -48.936563,0.002 -0.723659,-0.216814 -1.912006,-1.21325 -2.284113,-1.915243 -0.147083,-0.27748 -0.299221,-1.041817 -0.348286,-1.749783 l -0.08712,-1.257084 -8.310396,-0.04068 c -6.0064355,-0.02941 -8.3697827,0.0086 -8.5246033,0.137091 -0.2977479,0.247107 -0.3232536,100.377003 -0.025645,100.674613 0.1457563,0.14576 10.1148093,0.18856 43.9138573,0.18856 43.069095,0 43.727735,-0.005 43.887958,-0.30394 z"
     id="path87" />
  <path
     style="fill:#000000;stroke-width:0.157136"
     d="m 23.177493,101.57531 c -0.752184,-0.23107 -1.035288,-0.55023 -2.831019,-3.191654 -1.427752,-2.100145 -1.708508,-2.612508 -1.765142,-3.221279 -0.16217,-1.743228 1.87381,-2.955528 3.344862,-1.991657 0.212658,0.139339 0.722619,0.743735 1.133246,1.343103 0.410627,0.599368 0.799417,1.092774 0.863976,1.096458 0.06456,0.0037 1.089869,-1.175556 2.278466,-2.620534 3.017383,-3.668237 3.252412,-3.91231 3.931985,-4.08329 1.174147,-0.295413 2.181647,0.253513 2.632614,1.434353 0.210464,0.551094 0.21691,0.73583 0.04324,1.239341 -0.215559,0.624953 -7.258859,9.335289 -7.875196,9.739129 -0.490324,0.32127 -1.20544,0.42548 -1.75703,0.25603 z"
     id="path126" />
  <path
     style="fill:#000000;stroke-width:0.157136"
     d="m 19.166216,76.966618 c -0.743687,-0.508217 -1.020518,-1.276767 -0.719441,-1.997347 0.112269,-0.268698 0.917912,-1.236152 1.790317,-2.149897 l 1.586191,-1.661356 -1.560821,-1.554965 c -2.191823,-2.183598 -2.407307,-2.77262 -1.418979,-3.878751 0.370227,-0.414357 0.568864,-0.505908 1.097662,-0.505908 0.613413,0 0.735611,0.08972 2.448592,1.797844 l 1.802958,1.797843 1.773719,-1.749994 c 0.975545,-0.962496 1.956847,-1.795956 2.18067,-1.852132 0.587128,-0.14736 1.48482,0.278731 1.776801,0.84336 0.528508,1.022023 0.300818,1.485451 -1.706868,3.474061 -0.827186,0.819326 -1.503974,1.56345 -1.503974,1.653609 0,0.09016 0.57344,0.727955 1.274311,1.417324 1.543379,1.518051 2.182671,2.354596 2.182671,2.856133 0,0.585561 -0.427889,1.273698 -0.964562,1.551223 -0.892127,0.461336 -1.367779,0.224263 -3.187209,-1.588565 -0.907472,-0.904178 -1.707145,-1.643961 -1.777052,-1.643961 -0.06991,0 -0.79746,0.676788 -1.616787,1.503974 -1.981764,2.000774 -2.575685,2.290591 -3.458199,1.687505 z"
     id="path165" />
  <path
     style="fill:#000000;stroke-width:0.157136"
     d="m 22.611472,53.934213 c -0.495312,-0.330362 -3.011878,-3.799826 -3.754868,-5.17665 -0.850618,-1.576267 0.125195,-3.266315 1.885288,-3.2652 0.940732,5.98e-4 1.410215,0.337362 2.370537,1.700416 0.436476,0.619521 0.815559,1.126402 0.842406,1.126402 0.02685,0 1.237163,-1.447711 2.68959,-3.217134 3.150845,-3.838526 3.607797,-4.145106 5.063931,-3.397514 1.062352,0.54542 1.485757,1.884025 0.926014,2.927613 -0.434932,0.81089 -7.233058,8.925838 -7.790907,9.300035 -0.691656,0.463952 -1.538278,0.464723 -2.231991,0.002 z"
     id="path204" />
  <path
     style="fill:#000000;stroke-width:0.157136"
     d="m 42.505516,48.700171 c -0.721289,-0.376091 -0.98704,-0.672483 -1.272016,-1.418683 -0.454996,-1.191388 0.06894,-2.465603 1.248634,-3.036683 0.667706,-0.32323 0.791289,-0.32542 18.368704,-0.32542 12.096814,0 17.836449,0.05277 18.138828,0.166773 0.672588,0.253576 1.451212,1.088793 1.628377,1.746734 0.288597,1.071769 -0.26496,2.290586 -1.274166,2.805444 -0.592774,0.30241 -1.009643,0.309365 -18.486876,0.308419 -15.907522,-8.62e-4 -17.932405,-0.02807 -18.351485,-0.246584 z"
     id="path243" />
  <path
     style="fill:#000000;stroke-width:0.157136"
     d="m 42.469723,73.289088 c -0.710743,-0.351813 -1.238261,-1.050548 -1.398682,-1.852654 -0.144957,-0.724782 0.325797,-1.821639 1.003767,-2.338781 l 0.562966,-0.429419 18.045993,-0.04124 c 17.721589,-0.0405 18.056964,-0.03564 18.656274,0.270102 1.012916,0.516751 1.567039,1.733998 1.278002,2.807401 -0.177165,0.65794 -0.955789,1.493158 -1.628377,1.746733 -0.302391,0.114007 -6.044767,0.166734 -18.149155,0.166649 -17.648823,-1.23e-4 -17.708978,-0.0012 -18.370788,-0.328791 z"
     id="path282" />
  <path
     style="fill:#000000;stroke-width:0.157136"
     d="m 42.253416,98.563044 c -0.767867,-0.50879 -1.301289,-1.652997 -1.16013,-2.488513 0.140443,-0.831271 0.999317,-1.807824 1.780905,-2.024916 0.790827,-0.219658 35.243252,-0.218986 36.03421,7.03e-4 0.670104,0.186121 1.433059,0.987058 1.694311,1.77866 0.343606,1.041136 -0.252187,2.331188 -1.308019,2.832213 -0.487774,0.231463 -2.239257,0.255635 -18.523031,0.255635 H 42.787344 Z"
     id="path321" />
</svg>
