<?xml version="1.0" encoding="UTF-8" standalone="no"?>
<svg
   id="Vrstva_1"
   viewBox="0 0 100 100"
   version="1.1"
   sodipodi:docname="asset-types.svg"
   inkscape:version="1.1.2 (0a00cf5339, 2022-02-04)"
   xmlns:inkscape="http://www.inkscape.org/namespaces/inkscape"
   xmlns:sodipodi="http://sodipodi.sourceforge.net/DTD/sodipodi-0.dtd"
   xmlns="http://www.w3.org/2000/svg"
   xmlns:svg="http://www.w3.org/2000/svg">
  <sodipodi:namedview
     id="namedview25"
     pagecolor="#ffffff"
     bordercolor="#666666"
     borderopacity="1.0"
     inkscape:pageshadow="2"
     inkscape:pageopacity="0.0"
     inkscape:pagecheckerboard="0"
     showgrid="false"
     inkscape:zoom="7.82"
     inkscape:cx="49.936061"
     inkscape:cy="49.936061"
     inkscape:window-width="1876"
     inkscape:window-height="1016"
     inkscape:window-x="0"
     inkscape:window-y="0"
     inkscape:window-maximized="1"
     inkscape:current-layer="Vrstva_1" />
  <defs
     id="defs4">
    <style
       id="style2">.cls-1{fill:#717171;}</style>
  </defs>
  <path
     style="fill:#000000;stroke-width:0.154979"
     d="M 4.8722907,37.479501 C 3.3109844,36.626856 2.4450255,35.250408 2.3239309,33.428862 c -0.09716,-1.461516 0.235865,-2.482895 1.1690615,-3.585492 0.9613225,-1.135827 1.9370331,-1.605864 3.351394,-1.614494 1.2854393,-0.0077 2.4365243,0.532716 3.2792126,1.539949 0.868843,1.038495 1.186715,1.945121 1.176883,3.356659 -0.0099,1.424852 -0.396803,2.455374 -1.27972,3.408791 -0.8815554,0.951944 -1.6606995,1.307324 -3.0325523,1.383195 -1.1030218,0.06101 -1.2627961,0.02794 -2.115919,-0.437969 z"
     id="path64" />
  <path
     style="fill:#000000;stroke-width:0.154979"
     d="M 6.2513208,55.24577 C 4.7855331,54.937954 3.6195222,54.009196 2.937389,52.606137 2.598531,51.909148 2.5409338,51.591802 2.5409338,50.421772 c 0,-1.173824 0.057143,-1.486493 0.4009816,-2.194011 0.8203303,-1.688002 2.4049002,-2.695951 4.1951407,-2.66854 1.7395858,0.02665 3.5842689,1.45528 4.1441549,3.209512 0.248661,0.779105 0.248661,2.526972 0,3.306077 -0.661352,2.072146 -3.0603917,3.584556 -5.0298902,3.17096 z"
     id="path103" />
  <path
     style="fill:#000000;stroke-width:0.154979"
     d="M 5.9077319,72.045885 C 1.7596765,70.787311 1.2867961,64.73017 5.1889633,62.839154 5.9990952,62.44656 6.2407556,62.402698 7.247103,62.465605 c 1.8414489,0.115112 3.096751,1.031971 3.924349,2.866305 0.503196,1.115306 0.468096,2.850789 -0.08213,4.060732 -0.939504,2.065967 -3.2380446,3.242941 -5.1815924,2.653243 z"
     id="path142" />
  <path
     style="fill:#000000;stroke-width:0.154979"
     d="M 14.453858,67.272227 V 64.85651 h 15.435924 15.435923 v 2.415717 2.415719 H 29.889782 14.453858 Z"
     id="path181" />
  <path
     style="fill:#000000;stroke-width:0.154979"
     d="m 14.661255,50.538936 v -2.415719 h 15.435923 15.435924 v 2.415719 2.415717 H 30.097178 14.661255 Z"
     id="path220" />
  <path
     style="fill:#000000;stroke-width:0.154979"
     d="M 14.378707,33.597412 V 31.181694 H 29.81463 45.250553 v 2.415718 2.415719 H 29.81463 14.378707 Z"
     id="path259" />
  <path
     style="fill:#000000;stroke-width:0.154979"
     d="m 52.189004,69.818923 -1.51521,-0.961551 2.206132,-4.05971 c 1.213375,-2.232842 3.517049,-6.47535 5.119278,-9.427793 l 2.913143,-5.368086 -1.059714,-1.959592 c -0.582841,-1.077778 -2.886395,-5.325605 -5.119007,-9.439614 l -4.059294,-7.480016 1.489611,-0.934734 c 0.819286,-0.514103 1.534566,-0.932702 1.58951,-0.930219 0.159028,0.0073 11.290715,20.652987 11.236267,20.839768 -0.07839,0.268927 -10.939915,20.283272 -11.121431,20.493271 -0.124085,0.143559 -0.533395,-0.04454 -1.679285,-0.771724 z"
     id="path298" />
  <path
     style="fill:#000000;stroke-width:0.154979"
     d="M 72.374909,50.70109 V 13.901656 H 84.977185 97.579461 V 50.70109 87.500523 H 84.977185 72.374909 Z m 21.923485,26.331322 v -6.925056 h -9.321209 -9.32121 v 6.925056 6.925059 h 9.32121 9.321209 z m 0,-17.554215 V 52.55314 h -9.321209 -9.32121 v 6.925057 6.925057 h 9.32121 9.321209 z m 0,-17.554214 v -6.925059 h -9.321209 -9.32121 v 6.925059 6.925056 h 9.32121 9.321209 z m 0,-17.39317 v -6.925057 h -9.321209 -9.32121 v 6.925057 6.92506 h 9.32121 9.321209 z"
     id="path337" />
  <path
     style="fill:#000000;stroke-width:0.154979"
     d="m 79.50452,45.950567 c -0.348968,-0.305139 -0.352085,-0.336642 -0.352085,-3.557283 0,-3.220639 0.0031,-3.25214 0.352085,-3.55728 0.330972,-0.289403 0.651119,-0.307866 5.338511,-0.307866 h 4.986426 l 0.366069,0.395298 c 0.363099,0.392093 0.36607,0.420242 0.36607,3.469848 0,3.049608 -0.0029,3.077758 -0.36607,3.469852 l -0.366069,0.395298 h -4.986426 c -4.687392,0 -5.007539,-0.01846 -5.338511,-0.307867 z"
     id="path376" />
</svg>
