<?xml version="1.0" encoding="UTF-8" standalone="no"?>
<svg
   id="Vrstva_1"
   viewBox="0 0 100 100"
   version="1.1"
   sodipodi:docname="user.svg"
   inkscape:version="1.1.2 (0a00cf5339, 2022-02-04)"
   xmlns:inkscape="http://www.inkscape.org/namespaces/inkscape"
   xmlns:sodipodi="http://sodipodi.sourceforge.net/DTD/sodipodi-0.dtd"
   xmlns="http://www.w3.org/2000/svg"
   xmlns:svg="http://www.w3.org/2000/svg">
  <sodipodi:namedview
     id="namedview11"
     pagecolor="#ffffff"
     bordercolor="#666666"
     borderopacity="1.0"
     inkscape:pageshadow="2"
     inkscape:pageopacity="0.0"
     inkscape:pagecheckerboard="0"
     showgrid="false"
     inkscape:zoom="7.82"
     inkscape:cx="49.936061"
     inkscape:cy="49.936061"
     inkscape:window-width="1876"
     inkscape:window-height="1016"
     inkscape:window-x="0"
     inkscape:window-y="0"
     inkscape:window-maximized="1"
     inkscape:current-layer="Vrstva_1" />
  <defs
     id="defs4">
    <style
       id="style2">.cls-1{fill:#717171;}</style>
  </defs>
  <path
     style="fill:#000000;stroke-width:0.172132"
     d="m 45.730226,44.597342 c -4.924426,-0.830047 -9.588522,-3.528501 -12.60377,-7.292016 -1.371115,-1.711374 -2.692854,-4.245121 -3.296495,-6.319314 -0.439612,-1.510573 -0.48236,-1.923268 -0.489357,-4.724406 -0.0071,-2.857119 0.02649,-3.183251 0.486616,-4.718718 1.008366,-3.365003 2.803551,-6.195727 5.440277,-8.578454 1.707352,-1.542882 3.030618,-2.433885 4.997808,-3.3652065 5.411669,-2.5620284 12.044525,-2.6283256 17.624333,-0.1761596 2.795264,1.2284401 6.212852,3.9639201 7.953603,6.3661611 1.106609,1.527124 2.245476,3.855474 2.814292,5.753659 0.460119,1.535467 0.493752,1.861599 0.486616,4.718718 -0.007,2.801138 -0.04974,3.213833 -0.489357,4.724406 -2.032984,6.985626 -8.361818,12.377479 -15.976286,13.611009 -1.829214,0.296328 -5.191234,0.296487 -6.94828,3.32e-4 z"
     id="path50" />
  <path
     style="fill:#000000;stroke-width:0.172042"
     d="m 3.2147408,94.27825 c 0.0061,-1.3423 0.3715917,-4.704485 0.7229138,-6.650002 C 5.5181513,78.875932 10.176084,70.533404 17.052841,64.138463 31.413402,50.784067 53.059219,47.468329 71.177413,55.847581 c 12.26381,5.671731 21.338606,16.0859 24.725511,28.374813 0.694163,2.518673 1.252458,5.932163 1.427616,8.728614 l 0.122101,1.949388 h -5.551952 -5.55195 v -1.001971 c 0,-1.570286 -0.335457,-4.0516 -0.825594,-6.106788 C 82.261791,74.116516 70.367422,63.850683 55.41553,61.806251 53.146052,61.495937 47.913094,61.451186 45.761555,61.723696 30.493426,63.657523 18.403003,73.936142 15.098631,87.791638 14.608494,89.846826 14.27304,92.32814 14.27304,93.898426 v 1.001971 H 8.7424787 3.2119168 Z"
     id="path89" />
</svg>
