<?xml version="1.0" encoding="UTF-8" standalone="no"?>
<svg
   id="Vrstva_1"
   viewBox="0 0 100 100"
   version="1.1"
   sodipodi:docname="customers.svg"
   inkscape:version="1.1.2 (0a00cf5339, 2022-02-04)"
   xmlns:inkscape="http://www.inkscape.org/namespaces/inkscape"
   xmlns:sodipodi="http://sodipodi.sourceforge.net/DTD/sodipodi-0.dtd"
   xmlns="http://www.w3.org/2000/svg"
   xmlns:svg="http://www.w3.org/2000/svg">
  <sodipodi:namedview
     id="namedview13"
     pagecolor="#ffffff"
     bordercolor="#666666"
     borderopacity="1.0"
     inkscape:pageshadow="2"
     inkscape:pageopacity="0.0"
     inkscape:pagecheckerboard="0"
     showgrid="false"
     inkscape:zoom="7.82"
     inkscape:cx="49.936061"
     inkscape:cy="49.936061"
     inkscape:window-width="1876"
     inkscape:window-height="1016"
     inkscape:window-x="0"
     inkscape:window-y="0"
     inkscape:window-maximized="1"
     inkscape:current-layer="Vrstva_1" />
  <defs
     id="defs4">
    <style
       id="style2">.cls-1{fill:#717171;}</style>
  </defs>
  <path
     style="fill:#000000;stroke-width:0.134065"
     d="m 34.33355,46.966686 c -5.90606,-1.063159 -10.778827,-5.73181 -12.041419,-11.537018 -1.107404,-5.091672 0.391923,-10.173097 4.095825,-13.881307 5.944969,-5.951884 15.809594,-5.827328 21.5361,0.271922 5.193487,5.531537 5.582782,13.629447 0.942785,19.61122 -2.263692,2.918299 -5.441185,4.820517 -9.25694,5.541704 -1.34669,0.254527 -3.843313,0.251443 -5.276351,-0.0065 z"
     id="path52" />
  <path
     style="fill:#000000;stroke-width:0.134065"
     d="m 1.5452018,86.084593 c 0,-1.310219 0.3210891,-4.06975 0.6789665,-5.835229 1.8116859,-8.937398 7.1627708,-16.965544 14.7667987,-22.154393 4.500479,-3.071043 9.448344,-4.986235 15.136153,-5.858815 2.119727,-0.325192 7.614304,-0.324253 9.711383,0.0016 6.761944,1.050894 12.821738,3.752137 17.846131,7.955176 l 1.258722,1.052953 1.494653,-0.451574 c 2.712768,-0.819598 4.201465,-1.019802 7.605805,-1.022847 2.27322,-0.0019 3.354788,0.05485 4.365108,0.229552 7.983503,1.380542 14.530955,5.677796 19.001434,12.471108 0.83706,1.271992 2.093033,3.822168 2.686154,5.454067 0.896822,2.467505 1.615371,6.176724 1.615371,8.338712 v 0.857551 h -4.079696 -4.079697 l -0.08394,-0.418186 c -0.04617,-0.230002 -0.08394,-0.671031 -0.08394,-0.980065 0,-1.671731 -0.820817,-4.758892 -1.820249,-6.846112 -1.81592,-3.792372 -5.255308,-7.241532 -8.993721,-9.019272 -3.182602,-1.513437 -6.570631,-2.134603 -10.107039,-1.853042 -0.860172,0.06848 -1.58811,0.148593 -1.617643,0.178017 -0.02954,0.02943 0.259562,0.570218 0.642434,1.201758 2.776149,4.579237 4.565712,10.484507 4.797198,15.829973 l 0.08257,1.906929 h -4.09362 -4.09362 l -0.15138,-1.840018 C 63.587979,79.91536 61.794622,75.130271 58.655915,70.944396 57.716187,69.691145 55.543733,67.437267 54.195119,66.316404 50.48687,63.234402 45.638164,61.11054 40.754958,60.429257 38.741684,60.148373 35.08219,60.147584 33.158374,60.427623 21.724495,62.091961 12.607885,70.639633 10.345227,81.817069 10.164262,82.711031 9.9813951,83.954314 9.9388563,84.57992 9.8963216,85.205526 9.8294129,86.033535 9.790181,86.419938 L 9.718838,87.122491 H 5.632023 1.5452018 Z"
     id="path91" />
  <path
     style="fill:#000000;stroke-width:0.134065"
     d="m 69.824315,55.481511 c -4.067238,-0.8173 -7.29514,-3.874289 -8.324208,-7.883452 -0.372272,-1.450347 -0.372272,-3.658891 0,-5.109238 2.045661,-7.969731 11.934587,-10.77459 17.77164,-5.040687 2.17209,2.133708 3.201834,4.544844 3.215211,7.528396 0.0087,1.938713 -0.234951,2.976173 -1.128471,4.805115 -0.592235,1.212246 -0.839747,1.552143 -1.910069,2.62302 -1.30898,1.30966 -2.548275,2.136412 -3.917177,2.613205 -1.866461,0.650097 -3.940512,0.818596 -5.706926,0.463641 z"
     id="path130" />
</svg>
