<?xml version="1.0" encoding="UTF-8" standalone="no"?>
<svg
   id="Vrstva_1"
   viewBox="0 0 100 100"
   version="1.1"
   sodipodi:docname="machines.svg"
   inkscape:version="1.1.2 (0a00cf5339, 2022-02-04)"
   xmlns:inkscape="http://www.inkscape.org/namespaces/inkscape"
   xmlns:sodipodi="http://sodipodi.sourceforge.net/DTD/sodipodi-0.dtd"
   xmlns="http://www.w3.org/2000/svg"
   xmlns:svg="http://www.w3.org/2000/svg">
  <sodipodi:namedview
     id="namedview13"
     pagecolor="#ffffff"
     bordercolor="#666666"
     borderopacity="1.0"
     inkscape:pageshadow="2"
     inkscape:pageopacity="0.0"
     inkscape:pagecheckerboard="0"
     showgrid="false"
     inkscape:zoom="7.82"
     inkscape:cx="49.936061"
     inkscape:cy="49.936061"
     inkscape:window-width="1876"
     inkscape:window-height="1016"
     inkscape:window-x="0"
     inkscape:window-y="0"
     inkscape:window-maximized="1"
     inkscape:current-layer="Vrstva_1" />
  <defs
     id="defs4">
    <style
       id="style2">.cls-1{fill:#717171;}</style>
  </defs>
  <path
     style="fill:#000000;stroke-width:0.180732"
     d="M 15.982977,55.123204 V 12.88158 H 31.324755 46.666534 V 7.8568713 2.8321628 H 64.30958 81.952626 V 45.073786 87.31541 H 66.610847 51.269068 v 5.024708 5.024711 H 33.626022 15.982977 Z m 30.683557,30.06309 V 77.265991 H 33.721909 20.777283 V 85.186294 93.1066 H 33.721909 46.666534 Z M 77.15832,75.136876 V 67.216573 H 64.213694 51.269068 v 7.920303 7.920306 H 64.213694 77.15832 Z M 46.666534,65.087458 V 57.167154 H 33.721909 20.777283 v 7.920304 7.920306 H 33.721909 46.666534 Z M 77.15832,55.123204 V 47.117736 H 64.213694 51.269068 v 7.891915 c 0,4.340555 0.05753,7.943015 0.127847,8.005469 0.07032,0.06246 5.895396,0.113551 12.944624,0.113551 H 77.158317 Z M 46.666534,45.073786 V 37.068315 H 33.721909 20.777283 v 8.005471 8.005469 H 33.721909 46.666534 Z M 77.15832,35.024368 V 27.018897 H 64.213694 51.269068 v 8.005471 8.005468 H 64.213694 77.15832 Z M 46.620489,25.017531 46.570659,17.054644 33.673974,17.010864 20.777292,16.967084 v 8.006667 8.006669 h 12.94652 12.946522 z M 77.15832,15.010694 V 7.0903907 H 64.213694 51.269068 v 7.9203033 7.920305 H 64.213694 77.15832 Z"
     id="path52" />
  <path
     style="fill:#000000;stroke-width:0.180732"
     d="M 26.150864,49.265973 C 25.74921,48.88624 25.73389,48.736038 25.73389,45.178075 c 0,-3.466576 0.02358,-3.714627 0.383545,-4.034339 0.369843,-0.328491 0.639239,-0.340659 7.541574,-0.340659 h 7.158029 l 0.416976,0.394219 c 0.401084,0.379197 0.416973,0.532005 0.416973,4.010477 0,3.612378 -4.99e-4,3.616706 -0.470715,4.034338 l -0.470714,0.418081 h -7.070862 -7.070859 z"
     id="path91" />
  <path
     style="fill:#000000;stroke-width:0.180732"
     d="m 56.830439,39.031604 c -0.373072,-0.421249 -0.397463,-0.665487 -0.397463,-3.979762 0,-3.314278 0.0244,-3.558513 0.397463,-3.979765 l 0.397464,-0.448794 h 7.177539 c 6.921844,0 7.191204,0.01212 7.561083,0.340658 0.360302,0.320013 0.383546,0.567764 0.383546,4.087901 0,3.520134 -0.02324,3.767886 -0.383546,4.087898 -0.369879,0.328522 -0.639239,0.340658 -7.561083,0.340658 h -7.177539 z"
     id="path130" />
</svg>
