<?xml version="1.0" encoding="UTF-8" standalone="no"?>
<svg
   id="Vrstva_1"
   viewBox="0 0 100 100"
   version="1.1"
   sodipodi:docname="reports.svg"
   inkscape:version="1.1.2 (0a00cf5339, 2022-02-04)"
   xmlns:inkscape="http://www.inkscape.org/namespaces/inkscape"
   xmlns:sodipodi="http://sodipodi.sourceforge.net/DTD/sodipodi-0.dtd"
   xmlns="http://www.w3.org/2000/svg"
   xmlns:svg="http://www.w3.org/2000/svg">
  <sodipodi:namedview
     id="namedview19"
     pagecolor="#ffffff"
     bordercolor="#666666"
     borderopacity="1.0"
     inkscape:pageshadow="2"
     inkscape:pageopacity="0.0"
     inkscape:pagecheckerboard="0"
     showgrid="false"
     inkscape:zoom="7.82"
     inkscape:cx="49.936061"
     inkscape:cy="49.936061"
     inkscape:window-width="1876"
     inkscape:window-height="1016"
     inkscape:window-x="0"
     inkscape:window-y="0"
     inkscape:window-maximized="1"
     inkscape:current-layer="Vrstva_1" />
  <defs
     id="defs4">
    <style
       id="style2">.cls-1{fill:#717171;}</style>
  </defs>
  <path
     style="fill:#000000;stroke-width:0.187067"
     d="M 3.6953878,52.174063 V 19.477989 H 19.556122 35.416855 l 9.572463,9.230886 9.572462,9.230888 V 61.40495 84.870135 H 29.128583 3.6953878 Z m 46.6751552,7.62296 V 38.764998 h -7.906201 -7.9062 v -7.622962 -7.62296 H 21.317639 8.077136 V 52.174063 80.829047 H 29.22384 50.370543 Z"
     id="path58" />
  <path
     style="fill:#000000;stroke-width:0.187067"
     d="M 14.363994,47.857446 V 45.745059 H 29.22384 44.083682 v 2.112387 2.112386 H 29.22384 14.363994 Z"
     id="path97" />
  <path
     style="fill:#000000;stroke-width:0.187067"
     d="M 14.363994,59.062279 V 56.949892 H 29.22384 44.083682 v 2.112387 2.112388 H 29.22384 14.363994 Z"
     id="path136" />
  <path
     style="fill:#000000;stroke-width:0.187067"
     d="M 14.363994,70.267114 V 68.154728 H 29.22384 44.083682 V 70.267114 72.3795 H 29.22384 14.363994 Z"
     id="path175" />
  <path
     style="fill:#000000;stroke-width:0.187067"
     d="M 63.457258,50.943333 V 8.9711257 H 79.650677 95.844098 V 50.943333 92.915539 H 79.650677 63.457258 Z M 91.462349,80.975961 V 73.077473 H 79.650677 67.839008 v 7.898488 7.89849 h 11.811669 11.811672 z m 0,-20.021752 V 53.05572 H 79.650677 67.839008 v 7.898489 7.898489 h 11.811669 11.811672 z m 0,-20.021753 v -7.89849 H 79.650677 67.839008 v 7.89849 7.898489 h 11.811669 11.811672 z m 0,-19.838068 V 13.195899 H 79.650677 67.839008 v 7.898489 7.898491 h 11.811669 11.811672 z"
     id="path214" />
  <path
     style="fill:#000000;stroke-width:0.187067"
     d="m 72.792288,45.157231 c -0.355618,-0.342882 -0.381021,-0.612287 -0.381021,-4.04109 0,-3.4288 0.02539,-3.698207 0.381021,-4.041087 0.36608,-0.352966 0.635036,-0.367371 6.858389,-0.367371 6.223355,0 6.492311,0.0144 6.858391,0.367371 0.35562,0.34288 0.381021,0.612287 0.381021,4.041087 0,3.428803 -0.02539,3.698208 -0.381021,4.04109 -0.36608,0.352961 -0.635036,0.367371 -6.858391,0.367371 -6.223353,0 -6.492309,-0.0144 -6.858389,-0.367371 z"
     id="path253" />
</svg>
