<?xml version="1.0" encoding="UTF-8" standalone="no"?>
<svg
   id="Vrstva_1"
   viewBox="0 0 100 100"
   version="1.1"
   sodipodi:docname="daily-locker.svg"
   inkscape:version="1.1.2 (0a00cf5339, 2022-02-04)"
   xmlns:inkscape="http://www.inkscape.org/namespaces/inkscape"
   xmlns:sodipodi="http://sodipodi.sourceforge.net/DTD/sodipodi-0.dtd"
   xmlns="http://www.w3.org/2000/svg"
   xmlns:svg="http://www.w3.org/2000/svg">
  <sodipodi:namedview
     id="namedview11"
     pagecolor="#ffffff"
     bordercolor="#666666"
     borderopacity="1.0"
     inkscape:pageshadow="2"
     inkscape:pageopacity="0.0"
     inkscape:pagecheckerboard="0"
     showgrid="false"
     inkscape:zoom="7.82"
     inkscape:cx="49.936061"
     inkscape:cy="49.936061"
     inkscape:window-width="1876"
     inkscape:window-height="1016"
     inkscape:window-x="0"
     inkscape:window-y="0"
     inkscape:window-maximized="1"
     inkscape:current-layer="Vrstva_1" />
  <defs
     id="defs4">
    <style
       id="style2">.cls-1{fill:#717171;}</style>
  </defs>
  <path
     class="cls-1"
     d="M 55.534058,4.1107754 V 22.063183 C 50.41124,18.573212 44.206937,16.521108 37.518814,16.521108 c -17.446043,0 -31.6476324,13.931962 -31.6476324,31.046775 0,17.114813 14.2015894,31.046774 31.6476324,31.046774 6.688123,0 12.906656,-2.052103 18.015244,-5.542072 V 93.286491 H 89.387349 V 4.1107754 Z M 10.567098,47.567883 c 0,-14.574114 12.095543,-26.440014 26.951716,-26.440014 14.856173,0 26.951716,11.85194 26.951716,26.440014 0,14.588075 -12.095543,26.440013 -26.951716,26.440013 -14.856173,0 -26.951716,-11.865898 -26.951716,-26.440013 z M 84.677202,88.679731 H 60.215745 V 72.151232 h 24.461457 z m 0,-21.135259 H 61.7099 C 65.637395,62.965632 68.241493,57.27 68.952997,51.015974 h 15.724205 z m 0,-21.135259 H 69.123757 c -0.04269,-1.144711 -0.142301,-2.27546 -0.313062,-3.39225 h 9.961036 c 0.739962,0 1.337625,-0.586316 1.337625,-1.31223 v -6.840342 c 0,-0.725913 -0.597663,-1.312228 -1.337625,-1.312228 H 66.121215 c -0.12807,0 -0.25614,0.04188 -0.36998,0.0698 -0.668813,-1.298268 -1.423006,-2.540697 -2.276809,-3.727287 h 21.202776 v 16.528497 z m 0,-21.135259 H 60.215745 V 8.7454563 h 24.461457 z"
     id="path6"
     style="stroke-width:1.40943" />
  <polygon
     class="cls-1"
     points="53.16,55.02 42.4,48.68 42.4,32.83 39.2,32.83 39.2,50.5 51.54,57.77 "
     id="polygon8"
     transform="matrix(1.4230051,0,0,1.395988,-20.539793,-21.659164)" />
  <path
     style="fill:#000000;stroke-width:0.180234"
     d="m 55.705619,83.129198 c 0,-6.388638 -0.06463,-10.086103 -0.176295,-10.086103 -0.09696,0 -0.758321,0.369361 -1.469684,0.820802 -0.711363,0.451442 -2.126458,1.208001 -3.144656,1.681244 -8.560773,3.97891 -18.412922,3.944391 -26.976848,-0.09451 C 14.927686,71.201131 8.5457041,63.110098 6.5398582,53.393209 6.1732328,51.61717 6.119906,50.845849 6.1273084,47.426179 6.1345441,44.041005 6.1925766,43.24009 6.5470362,41.624438 7.6647133,36.529966 9.7815777,32.112747 12.967272,28.227457 22.860394,16.161759 40.19183,13.094232 53.65425,21.026188 c 1.064268,0.627058 1.961207,1.140104 1.993201,1.140104 0.03199,0 0.05817,-4.056754 0.05817,-9.015012 V 4.1362732 H 72.53784 89.370061 V 48.675784 93.215301 H 72.53784 55.705619 Z M 84.820813,80.45147 V 72.150518 H 72.446855 60.072898 v 8.300952 8.300953 H 72.446855 84.820813 Z M 42.330829,73.667962 c 9.913667,-1.714491 18.308195,-9.113566 21.116927,-18.612804 0.752591,-2.545283 1.037665,-4.582978 1.042337,-7.450465 0.0053,-3.227998 -0.342083,-5.412367 -1.323133,-8.320995 -1.420168,-4.210536 -3.239937,-7.087674 -6.547155,-10.351352 -4.258431,-4.202367 -8.794115,-6.52712 -14.652917,-7.510307 -1.832811,-0.30757 -2.680647,-0.351385 -5.277129,-0.272701 -4.344761,0.13167 -7.182915,0.79217 -10.937864,2.545503 -5.246418,2.449761 -10.167283,7.29209 -12.612711,12.411426 -6.3200497,13.230577 -0.90701,28.650063 12.357432,35.20116 2.773984,1.370025 5.946802,2.257812 9.646398,2.699158 1.226868,0.146359 5.565346,-0.05803 7.187815,-0.338623 z m 42.489984,-14.37053 v -8.390211 h -8.006679 -8.006677 v 0.456589 c 0,0.767585 -0.738297,4.00485 -1.293598,5.672137 -1.073093,3.221959 -2.763793,6.418611 -4.7973,9.0704 -0.553263,0.721477 -1.005931,1.372418 -1.005931,1.446538 0,0.07411 5.199792,0.134755 11.555092,0.134755 h 11.555093 z m 0,-21.154039 V 29.842441 H 74.063657 63.3065 l 0.333417,0.490918 c 0.183379,0.270003 0.719574,1.117358 1.191548,1.883013 l 0.858135,1.392098 6.545316,-0.01271 c 4.579931,-0.009 6.683567,0.04906 7.005729,0.193067 0.782528,0.349773 0.875173,0.890862 0.814312,4.756011 -0.05075,3.222999 -0.09078,3.615886 -0.403,3.953907 -0.337084,0.364962 -0.492214,0.375317 -5.621888,0.375317 h -5.275241 l 0.116004,1.204978 c 0.06381,0.662737 0.116592,1.466054 0.117304,1.785151 l 0.0013,0.580173 h 7.915694 7.915692 z m 0,-21.154039 V 8.5991444 H 72.446855 60.072898 v 8.3902096 8.390209 h 12.373957 12.373958 z"
     id="path50" />
  <path
     style="fill:#000000;stroke-width:0.180234"
     d="M 43.968558,53.772574 35.41597,48.810734 35.36922,36.559604 35.32247,24.308473 h 2.184895 2.184893 v 11.027151 11.027152 l 4.321785,2.491043 c 2.376984,1.370073 5.811655,3.357185 7.632601,4.415803 l 3.310816,1.924762 -1.036191,1.724303 c -0.569904,0.948368 -1.118076,1.744875 -1.21816,1.770015 -0.100081,0.02515 -4.030634,-2.187117 -8.734557,-4.916128 z"
     id="path89" />
</svg>
