<?xml version="1.0" encoding="UTF-8" standalone="no"?>
<svg
   width="16"
   height="16"
   fill="currentColor"
   class="bi bi-house"
   viewBox="0 0 16 16"
   version="1.1"
   id="svg4"
   sodipodi:docname="temp_ambient.svg"
   inkscape:version="1.2.2 (b0a8486541, 2022-12-01)"
   xmlns:inkscape="http://www.inkscape.org/namespaces/inkscape"
   xmlns:sodipodi="http://sodipodi.sourceforge.net/DTD/sodipodi-0.dtd"
   xmlns="http://www.w3.org/2000/svg"
   xmlns:svg="http://www.w3.org/2000/svg">
  <defs
     id="defs8" />
  <sodipodi:namedview
     id="namedview6"
     pagecolor="#ffffff"
     bordercolor="#666666"
     borderopacity="1.0"
     inkscape:showpageshadow="2"
     inkscape:pageopacity="0.0"
     inkscape:pagecheckerboard="0"
     inkscape:deskcolor="#d1d1d1"
     showgrid="false"
     inkscape:zoom="64.1875"
     inkscape:cx="7.1119766"
     inkscape:cy="8.0077897"
     inkscape:window-width="3800"
     inkscape:window-height="2089"
     inkscape:window-x="40"
     inkscape:window-y="32"
     inkscape:window-maximized="1"
     inkscape:current-layer="svg4" />
  <path
     d="M8.707 1.5a1 1 0 0 0-1.414 0L.646 8.146a.5.5 0 0 0 .708.708L2 8.207V13.5A1.5 1.5 0 0 0 3.5 15h9a1.5 1.5 0 0 0 1.5-1.5V8.207l.646.647a.5.5 0 0 0 .708-.708L13 5.793V2.5a.5.5 0 0 0-.5-.5h-1a.5.5 0 0 0-.5.5v1.293zM13 7.207V13.5a.5.5 0 0 1-.5.5h-9a.5.5 0 0 1-.5-.5V7.207l5-5z"
     id="path2" />
  <path
     d="M 9.062665,11.654515 A 1.1094033,0.890887 0 1 1 7.5834607,10.814111 V 8.0909668 a 0.36980108,0.29696233 0 0 1 0.7396021,0 v 2.7231442 a 1.1094033,0.890887 0 0 1 0.7396022,0.840404"
     id="path133"
     style="stroke-width:0.662773" />
  <path
     d="m 6.1020307,5.7152683 a 1.8434413,1.4848117 0 0 1 3.6868825,0 v 4.4841307 a 2.5808179,2.0787363 0 1 1 -3.6868825,0 z M 7.945472,4.8243813 a 1.1060649,0.890887 0 0 0 -1.1060647,0.890887 v 4.7436757 l -0.123142,0.08909 a 1.8434413,1.4848117 0 1 0 2.4576761,0 L 9.0515369,10.458944 V 5.7152683 A 1.1060649,0.890887 0 0 0 7.945472,4.8243813"
     id="path135"
     style="stroke-width:0.661775" />
</svg>
